SplineFontDB: 3.0
FontName: UniOl-Bold
FullName: UniOl Bold
FamilyName: UniOl
Weight: Bold
Copyright: Copyright (c) 2020 -2025, Dr Anirban Mitra
UComments: "2020-8-7: Created with FontForge (http://fontforge.org)"
Version: 002.000
ItalicAngle: 0
UnderlinePosition: -100
UnderlineWidth: 50
Ascent: 800
Descent: 200
InvalidEm: 0
LayerCount: 2
Layer: 0 1 "Back" 1
Layer: 1 1 "Fore" 0
XUID: [1021 162 -509335450 8305068]
StyleMap: 0x0020
FSType: 0
OS2Version: 0
OS2_WeightWidthSlopeOnly: 0
OS2_UseTypoMetrics: 1
CreationTime: 1596786230
ModificationTime: 1749715657
PfmFamily: 33
TTFWeight: 700
TTFWidth: 5
LineGap: 90
VLineGap: 0
OS2TypoAscent: 0
OS2TypoAOffset: 1
OS2TypoDescent: 0
OS2TypoDOffset: 1
OS2TypoLinegap: 90
OS2WinAscent: 0
OS2WinAOffset: 1
OS2WinDescent: 0
OS2WinDOffset: 1
HheadAscent: 0
HheadAOffset: 1
HheadDescent: 0
HheadDOffset: 1
OS2FamilyClass: 2063
OS2Vendor: 'anir'
MarkAttachClasses: 1
DEI: 91125

StartChar: uni1C50
Encoding: 256 7248 0
Width: 1251
VWidth: 2048
Flags: W
LayerCount: 2
Fore
SplineSet
433 408 m 0,0,1
 433 524 433 524 481 611 c 128,-1,2
 529 698 529 698 614 735 c 0,3,4
 667 758 667 758 734 759 c 2,5,-1
 734 759 l 2,6,7
 735 759 735 759 737 759 c 0,8,9
 867 759 867 759 952 663 c 0,10,11
 1036 567 1036 567 1036 408 c 0,12,13
 1036 291 1036 291 989 205 c 0,14,15
 942 120 942 120 855 79 c 0,16,17
 798 53 798 53 734 53 c 2,18,-1
 734 53 l 1,19,20
 600 54 600 54 516 153 c 0,21,22
 433 252 433 252 433 408 c 0,0,1
573 408 m 0,23,24
 573 326 573 326 600 266 c 0,25,26
 626 208 626 208 673 183 c 0,27,28
 701 167 701 167 734 167 c 0,29,30
 801 167 801 167 846 229 c 0,31,32
 895 297 895 297 896 408 c 0,33,34
 896 490 896 490 869 548 c 0,35,36
 843 606 843 606 795 631 c 0,37,38
 766 646 766 646 734 646 c 0,39,40
 667 646 667 646 622 586 c 0,41,42
 573 519 573 519 573 408 c 0,23,24
EndSplineSet
EndChar

StartChar: uni1C51
Encoding: 257 7249 1
Width: 1098
VWidth: 2048
Flags: W
LayerCount: 2
Fore
SplineSet
841 756 m 1,0,-1
 981 756 l 1,1,-1
 981 396 l 1,2,-1
 945 396 l 1,3,-1
 646 590 l 1,4,5
 629 534 629 534 628 451 c 0,6,7
 628 344 628 344 674 272 c 0,8,9
 719 200 719 200 800 147 c 0,10,11
 861 108 861 108 948 77 c 2,12,-1
 964 71 l 1,13,-1
 964 51 l 1,14,-1
 964 44 l 1,15,-1
 911 -40 l 1,16,-1
 893 -35 l 2,17,18
 804 -10 804 -10 731 33 c 0,19,20
 659 75 659 75 603 139 c 128,-1,21
 547 203 547 203 517 283 c 128,-1,22
 487 363 487 363 487 455 c 0,23,24
 487 572 487 572 531 688 c 0,25,26
 546 727 546 727 567 763 c 2,27,-1
 574 775 l 1,28,-1
 592 775 l 1,29,-1
 599 775 l 1,30,-1
 841 616 l 1,31,-1
 841 756 l 1,0,-1
EndSplineSet
EndChar

StartChar: uni1C52
Encoding: 258 7250 2
Width: 1070
VWidth: 2048
Flags: W
LayerCount: 2
Fore
SplineSet
863 23 m 2,0,1
 807 -82 807 -82 730 -134 c 128,-1,2
 653 -186 653 -186 557 -186 c 0,3,4
 462 -186 462 -186 393 -145 c 0,5,6
 323 -104 323 -104 288 -34 c 0,7,8
 264 14 264 14 264 73 c 0,9,10
 264 120 264 120 278 155 c 0,11,12
 304 224 304 224 387 322 c 0,13,14
 421 362 421 362 468 413 c 1,15,16
 381 460 381 460 357 538 c 0,17,18
 348 566 348 566 348 592 c 0,19,20
 348 650 348 650 376 693 c 128,-1,21
 404 736 404 736 450 758 c 0,22,23
 486 775 486 775 533 775 c 128,-1,24
 580 775 580 775 616 761 c 0,25,26
 687 733 687 733 714 661 c 0,27,28
 727 626 727 626 727 585 c 0,29,30
 727 524 727 524 693 468 c 0,31,32
 671 433 671 433 607 360 c 0,33,34
 543 286 543 286 506 241 c 0,35,36
 433 154 433 154 417 110 c 0,37,38
 409 89 409 89 409 69 c 0,39,40
 409 11 409 11 446 -19 c 0,41,42
 485 -51 485 -51 551 -51 c 0,43,44
 603 -51 603 -51 639 -30 c 0,45,46
 701 6 701 6 745 101 c 2,47,-1
 752 115 l 1,48,-1
 771 115 l 1,49,-1
 780 115 l 1,50,-1
 873 41 l 1,51,-1
 863 23 l 2,0,1
587 585 m 0,52,53
 587 613 587 613 574 629 c 0,54,55
 562 644 562 644 539 644 c 0,56,57
 538 644 538 644 536 644 c 0,58,59
 511 644 511 644 497 629 c 128,-1,60
 483 614 483 614 483 588 c 0,61,62
 483 555 483 555 521 528 c 0,63,64
 534 519 534 519 554 511 c 1,65,66
 557 514 557 514 558 515 c 128,-1,67
 559 516 559 516 564 523 c 0,68,69
 569 529 569 529 571 533 c 0,70,71
 573 536 573 536 576 542 c 0,72,73
 580 548 580 548 581 552 c 128,-1,74
 582 556 582 556 584 562 c 0,75,76
 587 572 587 572 587 585 c 0,52,53
EndSplineSet
EndChar

StartChar: uni1C53
Encoding: 259 7251 3
Width: 1119
VWidth: 2048
Flags: W
LayerCount: 2
Fore
SplineSet
279 603 m 0,0,1
 279 661 279 661 307 704 c 128,-1,2
 335 747 335 747 381 769 c 0,3,4
 417 786 417 786 464 786 c 128,-1,5
 511 786 511 786 547 771 c 0,6,7
 618 743 618 743 646 671 c 0,8,9
 659 636 659 636 659 594 c 0,10,11
 659 533 659 533 626 476 c 1,12,-1
 685 455 l 1,13,-1
 685 769 l 1,14,-1
 828 769 l 1,15,-1
 828 274 l 1,16,-1
 800 274 l 1,17,-1
 795 274 l 1,18,-1
 537 370 l 1,19,20
 465 295 465 295 436 249 c 0,21,22
 411 210 411 210 411 170 c 128,-1,23
 411 130 411 130 430 103 c 0,24,25
 450 76 450 76 489 52 c 0,26,27
 542 20 542 20 612 -2 c 0,28,29
 682 -23 682 -23 806 -48 c 1,30,-1
 806 -71 l 1,31,-1
 806 -78 l 1,32,-1
 751 -173 l 1,33,-1
 734 -170 l 2,34,35
 510 -133 510 -133 394 -52 c 0,36,37
 266 37 266 37 266 175 c 0,38,39
 266 238 266 238 297 296 c 128,-1,40
 328 354 328 354 397 427 c 1,41,42
 311 474 311 474 288 548 c 0,43,44
 279 576 279 576 279 603 c 0,0,1
468 655 m 0,45,46
 451 655 451 655 439 648 c 0,47,48
 415 635 415 635 415 602 c 0,49,50
 415 581 415 581 423 571 c 0,51,52
 443 545 443 545 488 525 c 1,53,54
 502 543 502 543 510 559 c 128,-1,55
 518 575 518 575 518 595 c 0,56,57
 518 624 518 624 505 639 c 0,58,59
 492 655 492 655 468 655 c 0,45,46
EndSplineSet
EndChar

StartChar: uni1C54
Encoding: 260 7252 4
Width: 1073
VWidth: 2048
Flags: W
LayerCount: 2
Fore
SplineSet
825 209 m 0,0,1
 825 122 825 122 786 59 c 128,-1,2
 747 -4 747 -4 680 -33 c 0,3,4
 633 -54 633 -54 575 -54 c 0,5,6
 447 -54 447 -54 362 38 c 0,7,8
 273 134 273 134 273 292 c 0,9,10
 273 457 273 457 361 615 c 0,11,12
 457 786 457 786 632 909 c 2,13,-1
 648 920 l 1,14,-1
 743 845 l 1,15,-1
 743 833 l 1,16,-1
 743 819 l 1,17,-1
 733 811 l 2,18,19
 575 685 575 685 491 541 c 1,20,21
 495 469 495 469 517 417 c 0,22,23
 540 365 540 365 581 341 c 0,24,25
 605 327 605 327 633 327 c 0,26,27
 693 327 693 327 743 370 c 2,28,-1
 750 376 l 1,29,-1
 775 376 l 1,30,-1
 783 366 l 2,31,32
 825 307 825 307 825 209 c 0,0,1
574 86 m 0,33,34
 618 86 618 86 646 109 c 0,35,36
 684 140 684 140 692 200 c 1,37,38
 663 191 663 191 628 191 c 0,39,40
 556 191 556 191 503 226 c 128,-1,41
 450 261 450 261 419 316 c 1,42,43
 418 305 418 305 418 294 c 0,44,45
 418 216 418 216 445 164 c 0,46,47
 470 115 470 115 519 97 c 0,48,49
 547 86 547 86 574 86 c 0,33,34
EndSplineSet
EndChar

StartChar: uni1C55
Encoding: 261 7253 5
Width: 1167
VWidth: 2048
Flags: W
LayerCount: 2
Fore
SplineSet
730 176 m 0,0,1
 659 176 659 176 611 212 c 128,-1,2
 563 248 563 248 540 308 c 0,3,4
 525 348 525 348 525 398 c 0,5,6
 525 490 525 490 571 552 c 128,-1,7
 617 614 617 614 693 645 c 0,8,9
 747 667 747 667 817 672 c 2,10,-1
 835 673 l 1,11,-1
 881 564 l 1,12,-1
 864 540 l 1,13,-1
 852 540 l 2,14,15
 788 538 788 538 745 515 c 128,-1,16
 702 492 702 492 683 452 c 0,17,18
 671 427 671 427 671 396 c 0,19,20
 671 356 671 356 691 335 c 128,-1,21
 711 314 711 314 748 314 c 0,22,23
 805 314 805 314 844 347 c 2,24,-1
 851 353 l 1,25,-1
 881 353 l 1,26,-1
 887 337 l 2,27,28
 910 277 910 277 910 219 c 0,29,30
 910 129 910 129 865 63 c 0,31,32
 821 -2 821 -2 749 -32 c 0,33,34
 699 -54 699 -54 637 -54 c 0,35,36
 486 -54 486 -54 392 71 c 128,-1,37
 298 196 298 196 297 394 c 0,38,39
 297 593 297 593 386 786 c 0,40,41
 415 849 415 849 452 903 c 2,42,-1
 467 925 l 1,43,-1
 571 844 l 1,44,-1
 571 822 l 1,45,-1
 567 816 l 2,46,47
 479 670 479 670 453 503 c 0,48,49
 445 453 445 453 445 403 c 0,50,51
 445 397 445 397 445 392 c 0,52,53
 445 287 445 287 476 212 c 128,-1,54
 507 137 507 137 565 105 c 0,55,56
 599 86 599 86 642 86 c 0,57,58
 684 86 684 86 715 107 c 0,59,60
 747 128 747 128 762 162 c 0,61,62
 766 171 766 171 768 180 c 1,63,64
 750 176 750 176 730 176 c 0,0,1
EndSplineSet
EndChar

StartChar: uni1C56
Encoding: 262 7254 6
Width: 1107
VWidth: 2048
Flags: W
LayerCount: 2
Fore
SplineSet
417 429 m 0,0,1
 417 315 417 315 515 205 c 128,-1,2
 613 95 613 95 806 -6 c 2,3,-1
 819 -13 l 1,4,-1
 819 -31 l 1,5,-1
 819 -43 l 1,6,-1
 730 -121 l 1,7,-1
 715 -114 l 2,8,9
 499 -8 499 -8 385 132 c 128,-1,10
 271 272 271 272 270 429 c 0,11,12
 270 576 270 576 365 692 c 0,13,14
 388 720 388 720 413 743 c 1,15,16
 406 765 406 765 398 806 c 1,17,-1
 486 859 l 1,18,-1
 493 859 l 1,19,-1
 517 859 l 1,20,21
 524 826 524 826 527 815 c 1,22,23
 589 841 589 841 648 841 c 0,24,25
 716 841 716 841 767 810 c 128,-1,26
 818 779 818 779 844 727 c 0,27,28
 862 690 862 690 862 645 c 0,29,30
 862 582 862 582 830 539 c 0,31,32
 798 495 798 495 746 476 c 0,33,34
 713 463 713 463 676 463 c 0,35,36
 610 463 610 463 552 505 c 0,37,38
 508 537 508 537 473 598 c 1,39,40
 417 524 417 524 417 429 c 0,0,1
670 594 m 0,41,42
 687 594 687 594 700 601 c 0,43,44
 726 615 726 615 726 648 c 0,45,46
 726 676 726 676 707 692 c 0,47,48
 689 707 689 707 659 707 c 0,49,50
 657 707 657 707 655 707 c 0,51,52
 616 707 616 707 570 683 c 1,53,54
 592 637 592 637 618 616 c 0,55,56
 643 594 643 594 670 594 c 0,41,42
EndSplineSet
EndChar

StartChar: uni1C57
Encoding: 263 7255 7
Width: 1054
VWidth: 2048
Flags: W
LayerCount: 2
Fore
SplineSet
547 627 m 0,0,1
 547 594 547 594 576 567 c 2,2,-1
 584 560 l 1,3,-1
 584 535 l 1,4,-1
 499 457 l 1,5,-1
 254 719 l 1,6,-1
 336 803 l 1,7,-1
 347 803 l 1,8,-1
 350 803 l 1,9,-1
 362 803 l 1,10,-1
 437 710 l 1,11,12
 452 747 452 747 479 772 c 0,13,14
 523 814 523 814 597 814 c 0,15,16
 662 814 662 814 706 784 c 0,17,18
 751 753 751 753 771 700 c 0,19,20
 785 664 785 664 785 615 c 128,-1,21
 785 566 785 566 767 530 c 128,-1,22
 749 494 749 494 716 454 c 0,23,24
 650 375 650 375 550 284 c 0,25,26
 503 242 503 242 471 209 c 128,-1,27
 439 176 439 176 424 151 c 128,-1,28
 409 126 409 126 408 99 c 0,29,30
 408 60 408 60 432 35 c 0,31,32
 455 9 455 9 493 -3 c 0,33,34
 520 -12 520 -12 552 -12 c 0,35,36
 610 -12 610 -12 657 22 c 128,-1,37
 704 56 704 56 744 140 c 2,38,-1
 751 154 l 1,39,-1
 770 154 l 1,40,-1
 779 154 l 1,41,-1
 871 80 l 1,42,-1
 862 62 l 2,43,44
 807 -43 807 -43 730 -95 c 128,-1,45
 653 -147 653 -147 557 -147 c 0,46,47
 462 -147 462 -147 393 -106 c 0,48,49
 323 -65 323 -65 288 3 c 0,50,51
 264 50 264 50 263 105 c 0,52,53
 263 160 263 160 282 197 c 0,54,55
 300 234 300 234 334 271 c 128,-1,56
 368 308 368 308 459 393 c 128,-1,57
 550 478 550 478 591 524 c 0,58,59
 615 551 615 551 627 570 c 0,60,61
 645 598 645 598 645 625 c 128,-1,62
 645 652 645 652 631 669 c 0,63,64
 619 683 619 683 597 684 c 0,65,66
 574 684 574 684 560 669 c 0,67,68
 547 654 547 654 547 627 c 0,0,1
EndSplineSet
EndChar

StartChar: uni1C58
Encoding: 264 7256 8
Width: 1346
VWidth: 2048
Flags: W
LayerCount: 2
Fore
SplineSet
670 -119 m 0,0,1
 565 -119 565 -119 486 -77 c 128,-1,2
 407 -35 407 -35 369 39 c 0,3,4
 343 89 343 89 343 149 c 2,5,-1
 343 640 l 2,6,7
 343 706 343 706 375 754 c 0,8,9
 407 801 407 801 461 822 c 0,10,11
 495 836 495 836 530 836 c 0,12,13
 600 836 600 836 649 796 c 0,14,15
 672 777 672 777 681 766 c 0,16,17
 691 755 691 755 698 747 c 1,18,19
 738 790 738 790 773 811 c 0,20,21
 815 836 815 836 863 836 c 0,22,23
 865 836 865 836 867 836 c 0,24,25
 932 836 932 836 979 804 c 0,26,27
 1026 771 1026 771 1048 718 c 0,28,29
 1063 681 1063 681 1063 639 c 0,30,31
 1063 596 1063 596 1049 560 c 0,32,33
 1021 492 1021 492 952 464 c 0,34,35
 919 450 919 450 882 450 c 0,36,37
 809 450 809 450 758 491 c 0,38,39
 734 510 734 510 724 521 c 128,-1,40
 714 532 714 532 706 540 c 1,41,42
 582 366 582 366 533 279 c 0,43,44
 507 232 507 232 497 200 c 0,45,46
 487 169 487 169 487 146 c 0,47,48
 487 98 487 98 516 70 c 0,49,50
 547 39 547 39 597 25 c 0,51,52
 632 16 632 16 672 16 c 0,53,54
 740 16 740 16 787 42 c 128,-1,55
 834 68 834 68 873 116 c 0,56,57
 902 152 902 152 929 204 c 2,58,-1
 936 217 l 1,59,-1
 955 217 l 1,60,-1
 964 217 l 1,61,-1
 1056 143 l 1,62,-1
 1047 125 l 2,63,64
 992 17 992 17 911 -43 c 0,65,66
 810 -119 810 -119 670 -119 c 0,0,1
536 702 m 0,67,68
 498 702 498 702 486 667 c 0,69,70
 482 655 482 655 481 640 c 2,71,-1
 481 458 l 1,72,73
 536 541 536 541 620 651 c 1,74,75
 602 671 602 671 582 686 c 0,76,77
 563 702 563 702 536 702 c 0,67,68
874 580 m 0,78,79
 899 580 899 580 913 596 c 128,-1,80
 927 612 927 612 927 641 c 0,81,82
 927 661 927 661 920 675 c 128,-1,83
 913 689 913 689 894 697 c 0,84,85
 885 701 885 701 875 702 c 0,86,87
 852 702 852 702 829 684 c 0,88,89
 806 667 806 667 782 640 c 1,90,91
 817 598 817 598 847 585 c 0,92,93
 860 580 860 580 874 580 c 0,78,79
EndSplineSet
EndChar

StartChar: uni1C59
Encoding: 265 7257 9
Width: 1299
VWidth: 2048
Flags: W
LayerCount: 2
Fore
SplineSet
579 293 m 0,0,1
 579 338 579 338 596 375 c 0,2,3
 613 413 613 413 641 437 c 0,4,5
 668 461 668 461 706 476 c 0,6,7
 743 491 743 491 789 492 c 0,8,9
 871 492 871 492 924 448 c 0,10,11
 977 405 977 405 1001 334 c 0,12,13
 1017 287 1017 287 1017 230 c 0,14,15
 1017 119 1017 119 966 37 c 128,-1,16
 915 -45 915 -45 831 -85 c 0,17,18
 771 -114 771 -114 696 -114 c 0,19,20
 545 -114 545 -114 434 -4 c 0,21,22
 317 112 317 112 317 298 c 0,23,24
 317 453 317 453 403 593 c 0,25,26
 493 739 493 739 665 850 c 2,27,-1
 680 859 l 1,28,-1
 777 787 l 1,29,-1
 777 774 l 1,30,-1
 777 759 l 1,31,-1
 767 752 l 2,32,33
 615 641 615 641 541 531 c 0,34,35
 462 414 462 414 462 287 c 128,-1,36
 462 160 462 160 537 89 c 0,37,38
 602 26 602 26 698 26 c 0,39,40
 764 26 764 26 807 60 c 1,41,42
 702 85 702 85 643 144 c 0,43,44
 579 207 579 207 579 293 c 0,0,1
831 346 m 0,45,46
 816 355 816 355 793 355 c 128,-1,47
 770 355 770 355 752 342 c 128,-1,48
 734 329 734 329 726 309 c 0,49,50
 721 296 721 296 720 284 c 0,51,52
 720 249 720 249 753 220 c 0,53,54
 795 183 795 183 877 173 c 1,55,56
 883 200 883 200 883 230 c 0,57,58
 883 272 883 272 869 303 c 0,59,60
 855 332 855 332 831 346 c 0,45,46
EndSplineSet
EndChar

StartChar: uni1C5A
Encoding: 266 7258 10
Width: 1395
VWidth: 2048
Flags: W
AnchorPoint: "base" 738 -172 basechar 0
AnchorPoint: "top" 738 -172 entry 0
AnchorPoint: "top" 662 934 basechar 0
LayerCount: 2
Fore
SplineSet
652 851 m 0,0,1
 772 851 772 851 872 781 c 0,2,3
 1020 678 1020 678 1065 475 c 0,4,5
 1080 409 1080 409 1080 338 c 0,6,7
 1080 140 1080 140 975 12 c 128,-1,8
 870 -116 870 -116 711 -116 c 0,9,10
 537 -116 537 -116 434 41 c 0,11,12
 400 93 400 93 377 163 c 2,13,-1
 372 178 l 1,14,-1
 842 618 l 1,15,16
 767 712 767 712 663 712 c 0,17,18
 612 712 612 712 569 693 c 0,19,20
 536 679 536 679 511 658 c 1,21,-1
 640 464 l 1,22,-1
 606 414 l 1,23,-1
 325 414 l 1,24,-1
 325 551 l 1,25,-1
 422 551 l 1,26,-1
 339 667 l 1,27,-1
 339 675 l 1,28,-1
 339 687 l 1,29,-1
 344 694 l 2,30,31
 467 851 467 851 652 851 c 0,0,1
542 142 m 1,32,33
 601 23 601 23 707 23 c 0,34,35
 801 23 801 23 864 106 c 0,36,37
 933 197 933 197 933 339 c 0,38,39
 933 420 933 420 911 489 c 1,40,-1
 542 142 l 1,32,33
EndSplineSet
EndChar

StartChar: uni1C5B
Encoding: 267 7259 11
Width: 1455
VWidth: 2048
Flags: W
AnchorPoint: "top" 722 916 basechar 0
AnchorPoint: "base" 714 -176 basechar 0
LayerCount: 2
Fore
SplineSet
329 370 m 128,-1,1
 329 576 329 576 441 713 c 128,-1,2
 553 850 553 850 727 851 c 0,3,4
 902 851 902 851 1014 713 c 0,5,6
 1126 576 1126 576 1126 370 c 128,-1,7
 1126 164 1126 164 1014 24 c 128,-1,8
 902 -116 902 -116 728 -116 c 0,9,10
 553 -116 553 -116 441 24 c 128,-1,0
 329 164 329 164 329 370 c 128,-1,1
476 370 m 0,11,12
 476 294 476 294 495 230 c 128,-1,13
 514 166 514 166 549 121 c 0,14,15
 583 75 583 75 629 49 c 128,-1,16
 675 23 675 23 727 23 c 0,17,18
 833 23 833 23 904 120 c 0,19,20
 978 221 978 221 978 369 c 0,21,22
 978 518 978 518 904 617 c 0,23,24
 833 712 833 712 728 712 c 128,-1,25
 623 712 623 712 550 617 c 0,26,27
 476 519 476 519 476 370 c 0,11,12
EndSplineSet
EndChar

StartChar: uni1C5C
Encoding: 268 7260 12
Width: 1389
VWidth: 2048
Flags: W
AnchorPoint: "top" 718 934 basechar 0
AnchorPoint: "base" 726 -150 basechar 0
LayerCount: 2
Fore
SplineSet
717 712 m 0,0,1
 610 712 610 712 538 617 c 0,2,3
 464 519 464 519 464 368 c 128,-1,4
 464 217 464 217 543 118 c 0,5,6
 619 23 619 23 732 23 c 0,7,8
 796 23 796 23 841 51 c 0,9,10
 904 91 904 91 927 168 c 1,11,12
 875 155 875 155 824 154 c 0,13,14
 743 154 743 154 681 187 c 0,15,16
 619 219 619 219 590 277 c 0,17,18
 570 317 570 317 569 368 c 0,19,20
 569 419 569 419 592 461 c 0,21,22
 614 503 614 503 648 527 c 128,-1,23
 682 551 682 551 728 566 c 0,24,25
 775 581 775 581 840 582 c 0,26,27
 966 582 966 582 1047 541 c 2,28,-1
 1055 537 l 1,29,-1
 1064 515 l 1,30,-1
 1018 414 l 1,31,-1
 997 420 l 2,32,33
 923 442 923 442 843 442 c 0,34,35
 747 442 747 442 717 392 c 0,36,37
 709 379 709 379 709 364 c 0,38,39
 709 342 709 342 723 327 c 0,40,41
 740 310 740 310 767 303 c 0,42,43
 793 296 793 296 828 296 c 0,44,45
 910 296 910 296 993 333 c 0,46,47
 1014 342 1014 342 1026 350 c 2,48,-1
 1032 354 l 1,49,-1
 1063 354 l 1,50,-1
 1068 335 l 2,51,52
 1077 295 1077 295 1077 253 c 0,53,54
 1077 249 1077 249 1077 244 c 0,55,56
 1077 123 1077 123 1022 37 c 128,-1,57
 967 -49 967 -49 872 -88 c 0,58,59
 808 -115 808 -115 731 -116 c 0,60,61
 552 -116 552 -116 435 22 c 0,62,63
 317 159 317 159 317 370 c 0,64,65
 317 473 317 473 346 561 c 128,-1,66
 375 649 375 649 427 712 c 0,67,68
 541 851 541 851 716 851 c 0,69,70
 817 851 817 851 894 806 c 0,71,72
 971 762 971 762 1024 689 c 2,73,-1
 1030 680 l 1,74,-1
 1025 655 l 1,75,-1
 909 593 l 1,76,-1
 897 612 l 2,77,78
 827 712 827 712 717 712 c 0,0,1
EndSplineSet
EndChar

StartChar: uni1C5D
Encoding: 269 7261 13
Width: 1390
VWidth: 2048
Flags: W
AnchorPoint: "top" 672 942 basechar 0
AnchorPoint: "base" 700 -154 basechar 0
LayerCount: 2
Fore
SplineSet
595 364 m 1,0,-1
 595 368 l 1,1,-1
 595 378 l 1,2,-1
 840 616 l 1,3,4
 803 675 803 675 723 696 c 0,5,6
 697 703 697 703 673 703 c 0,7,8
 603 703 603 703 548 645 c 0,9,10
 486 579 486 579 455 444 c 2,11,-1
 450 425 l 1,12,-1
 422 425 l 1,13,-1
 319 473 l 1,14,-1
 322 493 l 2,15,16
 353 649 353 649 450 746 c 0,17,18
 546 844 546 844 671 844 c 0,19,20
 771 844 771 844 860 784 c 0,21,22
 955 720 955 720 1008 609 c 2,23,-1
 1010 604 l 1,24,-1
 1010 584 l 1,25,-1
 779 366 l 1,26,-1
 1010 148 l 1,27,-1
 1010 128 l 1,28,-1
 1008 123 l 2,29,30
 946 3 946 3 858 -56 c 0,31,32
 776 -112 776 -112 678 -112 c 0,33,34
 548 -112 548 -112 452 -17 c 128,-1,35
 356 78 356 78 323 239 c 2,36,-1
 319 258 l 1,37,-1
 422 308 l 1,38,-1
 450 308 l 1,39,-1
 455 288 l 2,40,41
 486 155 486 155 548 88 c 0,42,43
 602 30 602 30 673 29 c 0,44,45
 755 29 755 29 818 89 c 0,46,47
 831 101 831 101 840 116 c 1,48,-1
 595 354 l 1,49,-1
 595 364 l 1,0,-1
862 432 m 1,50,-1
 1083 432 l 1,51,-1
 1083 300 l 1,52,-1
 862 300 l 1,53,-1
 862 432 l 1,50,-1
EndSplineSet
EndChar

StartChar: uni1C5E
Encoding: 270 7262 14
Width: 1232
VWidth: 2048
Flags: W
AnchorPoint: "top" 652 950 basechar 0
AnchorPoint: "base" 570 -138 basechar 0
LayerCount: 2
Fore
SplineSet
668 859 m 1,0,-1
 677 859 l 1,1,-1
 682 857 l 2,2,3
 777 814 777 814 844 741 c 128,-1,4
 911 668 911 668 941 568 c 0,5,6
 960 505 960 505 960 438 c 0,7,8
 960 235 960 235 802 96 c 0,9,10
 751 51 751 51 678 14 c 1,11,-1
 668 14 l 1,12,-1
 661 14 l 1,13,-1
 463 143 l 1,14,-1
 463 -86 l 1,15,-1
 317 -86 l 1,16,-1
 317 837 l 1,17,-1
 463 837 l 1,18,-1
 463 743 l 1,19,-1
 661 859 l 1,20,-1
 668 859 l 1,0,-1
813 437 m 0,21,22
 813 562 813 562 724 652 c 0,23,24
 698 679 698 679 664 700 c 1,25,-1
 463 584 l 1,26,-1
 463 307 l 1,27,-1
 665 174 l 1,28,29
 772 240 772 240 803 359 c 0,30,31
 813 398 813 398 813 437 c 0,21,22
EndSplineSet
EndChar

StartChar: uni1C5F
Encoding: 271 7263 15
Width: 1633
VWidth: 2048
Flags: W
AnchorPoint: "top" 758 1015 basechar 0
AnchorPoint: "base" 774 -213 basechar 0
LayerCount: 2
Fore
SplineSet
1266 333 m 0,0,1
 1266 136 1266 136 1200 -17 c 0,2,3
 1178 -67 1178 -67 1149 -107 c 2,4,-1
 1135 -126 l 1,5,-1
 1010 -44 l 1,6,-1
 1026 -23 l 2,7,8
 1092 65 1092 65 1114 227 c 0,9,10
 1121 280 1121 280 1121 336 c 0,11,12
 1121 534 1121 534 1042 644 c 1,13,-1
 996 587 l 1,14,15
 1038 476 1038 476 1038 338 c 0,16,17
 1038 141 1038 141 950 14 c 0,18,19
 859 -116 859 -116 715 -116 c 0,20,21
 570 -116 570 -116 481 11 c 0,22,23
 453 51 453 51 435 103 c 2,24,-1
 430 116 l 1,25,-1
 828 605 l 1,26,27
 801 659 801 659 767 683 c 0,28,29
 729 710 729 710 686 710 c 0,30,31
 620 710 620 710 558 657 c 1,32,-1
 687 464 l 1,33,-1
 652 414 l 1,34,-1
 372 414 l 1,35,-1
 372 550 l 1,36,-1
 468 550 l 1,37,-1
 385 667 l 1,38,-1
 385 675 l 1,39,-1
 385 686 l 1,40,-1
 390 693 l 2,41,42
 473 808 473 808 596 840 c 0,43,44
 635 850 635 850 674 850 c 0,45,46
 822 850 822 850 922 720 c 1,47,-1
 1027 849 l 1,48,-1
 1046 835 l 2,49,50
 1266 675 1266 675 1266 333 c 0,0,1
715 23 m 0,51,52
 789 23 789 23 838 104 c 0,53,54
 892 193 892 193 892 337 c 0,55,56
 892 395 892 395 883 448 c 1,57,-1
 599 97 l 1,58,59
 617 66 617 66 640 49 c 0,60,61
 672 23 672 23 715 23 c 0,51,52
EndSplineSet
EndChar

StartChar: uni1C60
Encoding: 272 7264 16
Width: 1228
VWidth: 2048
Flags: W
AnchorPoint: "top" 582 955 basechar 0
AnchorPoint: "base" 614 -189 basechar 0
LayerCount: 2
Fore
SplineSet
664 721 m 1,0,-1
 674 721 l 1,1,-1
 679 718 l 2,2,3
 882 616 882 616 938 423 c 0,4,5
 955 365 955 365 955 304 c 0,6,7
 955 301 955 301 955 297 c 0,8,9
 955 163 955 163 881 49 c 128,-1,10
 807 -65 807 -65 678 -122 c 2,11,-1
 673 -124 l 1,12,-1
 664 -124 l 1,13,-1
 657 -124 l 1,14,-1
 313 77 l 1,15,-1
 313 821 l 1,16,-1
 459 821 l 1,17,-1
 459 592 l 1,18,-1
 657 721 l 1,19,-1
 664 721 l 1,0,-1
809 298 m 0,20,21
 809 422 809 422 719 513 c 0,22,23
 693 539 693 539 660 560 c 1,24,-1
 459 427 l 1,25,-1
 459 152 l 1,26,-1
 659 36 l 1,27,28
 769 104 769 104 799 223 c 0,29,30
 809 260 809 260 809 298 c 0,20,21
EndSplineSet
EndChar

StartChar: uni1C61
Encoding: 273 7265 17
Width: 1310
VWidth: 2048
Flags: W
AnchorPoint: "top" 598 967 basechar 0
AnchorPoint: "base" 614 -181 basechar 0
LayerCount: 2
Fore
SplineSet
1014 343 m 0,0,1
 1014 170 1014 170 938 59 c 0,2,3
 901 5 901 5 853 -34 c 0,4,5
 806 -74 806 -74 738 -108 c 1,6,-1
 729 -108 l 1,7,-1
 721 -108 l 1,8,-1
 477 75 l 1,9,-1
 477 -92 l 1,10,-1
 331 -92 l 1,11,-1
 331 831 l 1,12,-1
 477 831 l 1,13,-1
 477 250 l 1,14,-1
 737 58 l 1,15,16
 867 143 867 143 867 341 c 0,17,-1
 867 341 l 0,18,19
 867 497 867 497 793 658 c 0,20,21
 769 710 769 710 735 763 c 1,22,-1
 735 773 l 1,23,-1
 735 785 l 1,24,-1
 838 866 l 1,25,-1
 853 845 l 2,26,27
 966 691 966 691 1002 480 c 0,28,29
 1014 411 1014 411 1014 343 c 0,0,1
EndSplineSet
EndChar

StartChar: uni1C62
Encoding: 274 7266 18
Width: 1310
VWidth: 2048
Flags: W
AnchorPoint: "top" 670 907 basechar 0
AnchorPoint: "base" 722 -165 basechar 0
LayerCount: 2
Fore
SplineSet
577 -108 m 1,0,-1
 571 -108 l 1,1,2
 504 -73 504 -73 456 -34 c 0,3,4
 409 6 409 6 372 60 c 128,-1,5
 335 114 335 114 315 186 c 0,6,7
 296 257 296 257 296 343 c 0,8,9
 296 546 296 546 391 737 c 0,10,11
 421 796 421 796 457 845 c 2,12,-1
 472 866 l 1,13,-1
 575 785 l 1,14,-1
 575 773 l 1,15,-1
 575 763 l 1,16,-1
 571 757 l 2,17,18
 478 615 478 615 452 444 c 0,19,20
 444 391 444 391 443 341 c 0,21,22
 443 143 443 143 573 58 c 1,23,-1
 833 250 l 1,24,-1
 833 831 l 1,25,-1
 979 831 l 1,26,-1
 979 -92 l 1,27,-1
 833 -92 l 1,28,-1
 833 75 l 1,29,-1
 589 -108 l 1,30,-1
 581 -108 l 1,31,-1
 577 -108 l 1,0,-1
EndSplineSet
EndChar

StartChar: uni1C63
Encoding: 275 7267 19
Width: 1397
VWidth: 2048
Flags: W
AnchorPoint: "top" 690 899 basechar 0
AnchorPoint: "base" 730 -161 basechar 0
LayerCount: 2
Fore
SplineSet
340 239 m 0,0,1
 340 309 340 309 361 381 c 2,2,-1
 367 399 l 1,3,-1
 401 399 l 1,4,-1
 408 390 l 2,5,6
 451 338 451 338 508 319 c 0,7,8
 525 313 525 313 540 313 c 0,9,10
 575 313 575 313 596 338 c 0,11,12
 615 360 615 360 626 400 c 0,13,14
 636 439 636 439 636 493 c 0,15,16
 636 642 636 642 572 685 c 0,17,18
 556 695 556 695 540 696 c 0,19,20
 511 696 511 696 483 664 c 0,21,22
 451 628 451 628 433 568 c 2,23,-1
 425 538 l 1,24,-1
 298 605 l 1,25,-1
 305 625 l 2,26,27
 340 732 340 732 404 787 c 0,28,29
 461 835 461 835 534 836 c 0,30,31
 640 836 640 836 711 737 c 128,-1,32
 782 638 782 638 782 486 c 128,-1,33
 782 334 782 334 717 250 c 0,34,35
 656 171 656 171 561 171 c 0,36,37
 519 171 519 171 480 188 c 1,38,39
 487 145 487 145 511 112 c 0,40,41
 546 64 546 64 602 41 c 0,42,43
 640 25 640 25 685 25 c 0,44,45
 786 25 786 25 851 103 c 0,46,47
 921 188 921 188 921 336 c 0,48,49
 921 490 921 490 859 658 c 0,50,51
 839 711 839 711 813 762 c 1,52,-1
 813 770 l 1,53,-1
 813 783 l 1,54,-1
 918 865 l 1,55,-1
 932 841 l 2,56,57
 1029 684 1029 684 1060 463 c 0,58,59
 1069 397 1069 397 1069 340 c 0,60,61
 1069 188 1069 188 1011 78 c 0,62,63
 954 -32 954 -32 847 -82 c 0,64,65
 778 -115 778 -115 696 -115 c 0,66,67
 546 -115 546 -115 443 -15 c 128,-1,68
 340 85 340 85 340 239 c 0,0,1
EndSplineSet
EndChar

StartChar: uni1C64
Encoding: 276 7268 20
Width: 1234
VWidth: 2048
Flags: W
AnchorPoint: "top" 630 919 basechar 0
AnchorPoint: "base" 630 -153 basechar 0
LayerCount: 2
Fore
SplineSet
603 853 m 0,0,1
 812 853 812 853 942 671 c 2,2,-1
 952 656 l 1,3,-1
 881 562 l 1,4,-1
 881 -92 l 1,5,-1
 736 -92 l 1,6,-1
 736 375 l 1,7,-1
 369 -116 l 1,8,-1
 253 -27 l 1,9,-1
 768 660 l 1,10,11
 696 717 696 717 601 717 c 0,12,13
 532 717 532 717 478 687 c 0,14,15
 423 658 423 658 375 602 c 2,16,-1
 368 593 l 1,17,-1
 353 593 l 1,18,-1
 344 593 l 1,19,-1
 248 669 l 1,20,-1
 263 689 l 2,21,22
 320 763 320 763 406 808 c 0,23,24
 494 853 494 853 603 853 c 0,0,1
EndSplineSet
EndChar

StartChar: uni1C65
Encoding: 277 7269 21
Width: 1234
VWidth: 2048
Flags: W
AnchorPoint: "top" 642 935 basechar 0
AnchorPoint: "base" 574 -189 basechar 0
LayerCount: 2
Fore
SplineSet
631 -118 m 0,0,1
 422 -118 422 -118 292 64 c 2,2,-1
 282 79 l 1,3,-1
 353 173 l 1,4,-1
 353 827 l 1,5,-1
 498 827 l 1,6,-1
 498 360 l 1,7,-1
 865 851 l 1,8,-1
 981 762 l 1,9,-1
 466 75 l 1,10,11
 537 18 537 18 631 18 c 0,12,13
 632 18 632 18 633 18 c 0,14,15
 702 18 702 18 756 48 c 0,16,17
 811 77 811 77 859 133 c 2,18,-1
 866 142 l 1,19,-1
 881 142 l 1,20,-1
 890 142 l 1,21,-1
 986 66 l 1,22,-1
 971 46 l 2,23,24
 916 -26 916 -26 833 -70 c 0,25,26
 790 -93 790 -93 739 -106 c 0,27,28
 687 -118 687 -118 631 -118 c 0,0,1
EndSplineSet
EndChar

StartChar: uni1C66
Encoding: 278 7270 22
Width: 1545
VWidth: 2048
Flags: W
AnchorPoint: "top" 782 983 basechar 0
AnchorPoint: "base" 790 -105 basechar 0
LayerCount: 2
Fore
SplineSet
500 359 m 0,0,1
 500 258 500 258 531 182 c 0,2,3
 556 120 556 120 597 82 c 1,4,-1
 758 303 l 1,5,-1
 771 303 l 1,6,-1
 787 303 l 1,7,-1
 948 83 l 1,8,9
 1008 137 1008 137 1031 235 c 0,10,11
 1045 292 1045 292 1045 359 c 0,12,13
 1045 519 1045 519 958 665 c 0,14,15
 930 711 930 711 890 762 c 1,16,-1
 890 773 l 1,17,-1
 890 785 l 1,18,-1
 991 865 l 1,19,-1
 1007 847 l 2,20,21
 1140 699 1140 699 1179 499 c 0,22,23
 1192 432 1192 432 1192 362 c 0,24,25
 1192 199 1192 199 1127 83 c 0,26,27
 1062 -34 1062 -34 947 -105 c 2,28,-1
 941 -108 l 1,29,-1
 931 -108 l 1,30,-1
 918 -108 l 1,31,-1
 773 88 l 1,32,-1
 627 -108 l 1,33,-1
 614 -108 l 1,34,-1
 604 -108 l 1,35,-1
 598 -105 l 2,36,37
 483 -34 483 -34 418 83 c 128,-1,38
 353 200 353 200 353 362 c 0,39,40
 353 567 353 567 461 744 c 0,41,42
 495 800 495 800 538 847 c 2,43,-1
 554 865 l 1,44,-1
 655 785 l 1,45,-1
 655 773 l 1,46,-1
 655 762 l 1,47,-1
 649 755 l 2,48,49
 540 621 540 621 511 467 c 0,50,51
 500 415 500 415 500 359 c 0,0,1
EndSplineSet
EndChar

StartChar: uni1C67
Encoding: 279 7271 23
Width: 1228
VWidth: 2048
Flags: W
AnchorPoint: "top" 602 959 basechar 0
AnchorPoint: "base" 690 -133 basechar 0
LayerCount: 2
Fore
SplineSet
564 14 m 1,0,-1
 554 14 l 1,1,-1
 549 17 l 2,2,3
 417 83 417 83 344 197 c 0,4,5
 273 306 273 306 273 438 c 0,6,7
 273 646 273 646 433 784 c 0,8,9
 485 828 485 828 555 859 c 1,10,-1
 564 859 l 1,11,-1
 571 859 l 1,12,-1
 915 658 l 1,13,-1
 915 -86 l 1,14,-1
 769 -86 l 1,15,-1
 769 143 l 1,16,-1
 571 14 l 1,17,-1
 564 14 l 1,0,-1
419 437 m 0,18,19
 419 313 419 313 509 222 c 0,20,21
 535 196 535 196 568 175 c 1,22,-1
 769 308 l 1,23,-1
 769 582 l 1,24,-1
 569 699 l 1,25,26
 460 633 460 633 429 512 c 0,27,28
 419 475 419 475 419 437 c 0,18,19
EndSplineSet
EndChar

StartChar: uni1C68
Encoding: 280 7272 24
Width: 1119
VWidth: 2048
Flags: W
AnchorPoint: "top" 490 943 basechar 0
AnchorPoint: "base" 526 -205 basechar 0
LayerCount: 2
Fore
SplineSet
347 638 m 1,0,-1
 362 638 l 1,1,-1
 693 259 l 1,2,3
 701 294 701 294 701 330 c 0,4,5
 701 452 701 452 609 550 c 0,6,7
 505 660 505 660 295 725 c 2,8,-1
 277 730 l 1,9,-1
 277 751 l 1,10,-1
 277 758 l 1,11,-1
 333 859 l 1,12,-1
 352 855 l 2,13,14
 578 798 578 798 713 653 c 0,15,16
 848 509 848 509 848 332 c 0,17,18
 848 210 848 210 788 94 c 0,19,20
 721 -36 721 -36 603 -105 c 2,21,-1
 597 -108 l 1,22,-1
 587 -108 l 1,23,-1
 576 -108 l 1,24,-1
 438 47 l 1,25,-1
 343 -108 l 1,26,-1
 329 -108 l 1,27,-1
 326 -108 l 1,28,-1
 318 -108 l 1,29,-1
 217 -39 l 1,30,-1
 402 264 l 1,31,-1
 430 264 l 1,32,-1
 596 82 l 1,33,34
 612 96 612 96 630 120 c 1,35,-1
 247 555 l 1,36,-1
 337 638 l 1,37,-1
 347 638 l 1,0,-1
EndSplineSet
EndChar

StartChar: uni1C69
Encoding: 281 7273 25
Width: 1222
VWidth: 2048
Flags: W
AnchorPoint: "top" 546 939 basechar 0
AnchorPoint: "base" 622 -189 basechar 0
LayerCount: 2
Fore
SplineSet
414 388 m 1,0,-1
 303 388 l 1,1,-1
 303 821 l 1,2,-1
 449 821 l 1,3,-1
 449 583 l 1,4,-1
 646 721 l 1,5,-1
 654 721 l 1,6,-1
 664 721 l 1,7,-1
 669 718 l 2,8,9
 872 616 872 616 928 424 c 0,10,11
 946 363 946 363 946 298 c 0,12,13
 946 89 946 89 782 -49 c 0,14,15
 729 -93 729 -93 657 -124 c 1,16,-1
 648 -124 l 1,17,-1
 642 -124 l 1,18,-1
 282 79 l 1,19,-1
 353 198 l 1,20,-1
 643 36 l 1,21,22
 758 105 758 105 789 221 c 0,23,24
 799 260 799 260 799 300 c 0,25,26
 799 423 799 423 715 514 c 0,27,28
 692 539 692 539 661 559 c 1,29,-1
 414 388 l 1,0,-1
EndSplineSet
EndChar

StartChar: uni1C6A
Encoding: 282 7274 26
Width: 1398
VWidth: 2048
Flags: W
AnchorPoint: "top" 698 963 basechar 0
AnchorPoint: "base" 714 -177 basechar 0
LayerCount: 2
Fore
SplineSet
453 610 m 2,0,1
 453 690 453 690 494 747 c 0,2,3
 536 804 536 804 601 832 c 0,4,5
 646 851 646 851 699 851 c 0,6,7
 803 851 803 851 874 781 c 128,-1,8
 945 711 945 711 945 610 c 2,9,-1
 945 323 l 1,10,-1
 1113 130 l 1,11,-1
 1104 115 l 2,12,13
 1009 -50 1009 -50 825 -99 c 0,14,15
 765 -115 765 -115 700 -116 c 0,16,17
 502 -116 502 -116 367 20 c 0,18,19
 324 63 324 63 294 115 c 2,20,-1
 285 130 l 1,21,-1
 453 324 l 1,22,-1
 453 610 l 2,0,1
804 610 m 2,23,24
 804 644 804 644 785 669 c 0,25,26
 766 695 766 695 738 707 c 0,27,28
 720 716 720 716 698 716 c 128,-1,29
 676 716 676 716 656 706 c 128,-1,30
 636 696 636 696 623 682 c 0,31,32
 610 667 610 667 602 649 c 0,33,34
 594 630 594 630 593 610 c 2,35,-1
 593 320 l 2,36,37
 593 296 593 296 609 279 c 0,38,39
 628 259 628 259 656 249 c 0,40,41
 676 242 676 242 698 242 c 0,42,43
 732 242 732 242 758 256 c 128,-1,44
 784 270 784 270 797 292 c 0,45,46
 804 304 804 304 804 317 c 2,47,-1
 804 610 l 2,23,24
465 124 m 1,48,49
 556 24 556 24 696 24 c 0,50,51
 697 24 697 24 699 24 c 0,52,53
 841 24 841 24 933 124 c 1,54,-1
 886 176 l 1,55,56
 858 148 858 148 819 129 c 0,57,58
 765 103 765 103 699 103 c 128,-1,59
 633 103 633 103 579 129 c 0,60,61
 540 148 540 148 512 176 c 1,62,-1
 465 124 l 1,48,49
EndSplineSet
EndChar

StartChar: uni1C6B
Encoding: 283 7275 27
Width: 1513
VWidth: 2048
Flags: W
AnchorPoint: "top" 778 915 basechar 0
AnchorPoint: "base" 762 -189 basechar 0
LayerCount: 2
Fore
SplineSet
341 473 m 0,0,1
 341 529 341 529 371 588 c 0,2,3
 431 705 431 705 582 789 c 0,4,5
 657 830 657 830 756 855 c 1,6,-1
 762 854 l 2,7,8
 941 808 941 808 1058 697 c 0,9,10
 1112 646 1112 646 1142 588 c 128,-1,11
 1172 530 1172 530 1172 473 c 0,12,13
 1172 396 1172 396 1125 341 c 0,14,15
 1088 299 1088 299 1023 273 c 0,16,17
 973 253 973 253 904 247 c 2,18,-1
 888 246 l 1,19,-1
 832 356 l 1,20,-1
 850 380 l 1,21,-1
 861 381 l 2,22,23
 950 388 950 388 994 419 c 0,24,25
 1027 442 1027 442 1028 475 c 0,26,27
 1028 498 1028 498 1011 529 c 0,28,29
 974 600 974 600 870 664 c 0,30,31
 820 694 820 694 756 716 c 1,32,33
 634 674 634 674 555 597 c 0,34,35
 520 563 520 563 503 531 c 128,-1,36
 486 499 486 499 485 474 c 0,37,38
 485 439 485 439 521 415 c 0,39,40
 565 384 565 384 651 381 c 2,41,-1
 663 380 l 1,42,-1
 681 356 l 1,43,-1
 625 245 l 1,44,-1
 608 247 l 2,45,46
 477 262 477 262 406 326 c 0,47,48
 341 386 341 386 341 473 c 0,0,1
694 56 m 0,49,50
 663 56 663 56 632 64 c 1,51,52
 652 42 652 42 683 29 c 128,-1,53
 714 16 714 16 754 16 c 0,54,55
 815 16 815 16 853 51 c 0,56,57
 890 87 890 87 914 169 c 2,58,-1
 919 187 l 1,59,-1
 950 187 l 1,60,-1
 1040 115 l 1,61,-1
 1035 98 l 2,62,63
 984 -54 984 -54 855 -99 c 0,64,65
 812 -114 812 -114 763 -115 c 0,66,67
 644 -115 644 -115 561 -37 c 0,68,69
 465 53 465 53 465 213 c 2,70,-1
 465 227 l 1,71,-1
 502 250 l 1,72,-1
 515 241 l 2,73,74
 576 201 576 201 642 191 c 0,75,76
 658 189 658 189 668 189 c 128,-1,77
 678 189 678 189 686 191 c 1,78,-1
 686 585 l 1,79,-1
 827 585 l 1,80,-1
 827 111 l 1,81,-1
 820 104 l 2,82,83
 775 56 775 56 694 56 c 0,49,50
EndSplineSet
EndChar

StartChar: uni1C6C
Encoding: 284 7276 28
Width: 1545
VWidth: 2048
Flags: W
AnchorPoint: "top" 794 931 basechar 0
AnchorPoint: "base" 758 -161 basechar 0
LayerCount: 2
Fore
SplineSet
1034 267 m 0,0,1
 1044 320 1044 320 1045 381 c 0,2,3
 1045 443 1045 443 1031 499 c 0,4,5
 1007 598 1007 598 947 653 c 1,6,-1
 787 432 l 1,7,-1
 774 432 l 1,8,-1
 770 432 l 1,9,-1
 758 432 l 1,10,-1
 597 653 l 1,11,12
 555 616 555 616 531 553 c 0,13,14
 501 477 501 477 500 376 c 0,15,16
 500 216 500 216 587 70 c 0,17,18
 615 24 615 24 655 -27 c 1,19,-1
 655 -38 l 1,20,-1
 655 -50 l 1,21,-1
 554 -130 l 1,22,-1
 538 -112 l 2,23,24
 405 36 405 36 366 236 c 0,25,26
 353 303 353 303 353 373 c 0,27,28
 353 599 353 599 488 749 c 0,29,30
 534 801 534 801 598 840 c 2,31,-1
 604 843 l 1,32,-1
 614 843 l 1,33,-1
 627 843 l 1,34,-1
 772 647 l 1,35,-1
 918 843 l 1,36,-1
 931 843 l 1,37,-1
 941 843 l 1,38,-1
 947 840 l 2,39,40
 1192 688 1192 688 1192 373 c 0,41,42
 1192 168 1192 168 1084 -9 c 0,43,44
 1050 -65 1050 -65 1007 -112 c 2,45,-1
 991 -130 l 1,46,-1
 890 -50 l 1,47,-1
 890 -38 l 1,48,-1
 890 -27 l 1,49,-1
 896 -20 l 2,50,51
 1004 114 1004 114 1034 267 c 0,0,1
EndSplineSet
EndChar

StartChar: uni1C6D
Encoding: 285 7277 29
Width: 1397
VWidth: 2048
Flags: W
AnchorPoint: "top" 702 951 basechar 0
AnchorPoint: "base" 674 -161 basechar 0
LayerCount: 2
Fore
SplineSet
1057 496 m 0,0,1
 1057 426 1057 426 1036 354 c 2,2,-1
 1030 336 l 1,3,-1
 997 336 l 1,4,-1
 989 344 l 2,5,6
 944 397 944 397 889 416 c 0,7,8
 872 422 872 422 857 422 c 0,9,10
 819 422 819 422 793 387 c 0,11,12
 761 342 761 342 761 248 c 0,13,14
 761 245 761 245 761 242 c 0,15,16
 761 93 761 93 825 50 c 0,17,18
 841 40 841 40 857 39 c 0,19,20
 886 39 886 39 915 72 c 128,-1,21
 944 105 944 105 964 168 c 2,22,-1
 973 196 l 1,23,-1
 1099 130 l 1,24,-1
 1092 110 l 2,25,26
 1057 3 1057 3 993 -52 c 0,27,28
 936 -100 936 -100 863 -101 c 0,29,30
 757 -101 757 -101 686 -2 c 128,-1,31
 615 97 615 97 615 249 c 128,-1,32
 615 401 615 401 680 485 c 0,33,34
 741 564 741 564 836 564 c 0,35,36
 878 564 878 564 917 547 c 1,37,38
 910 590 910 590 886 623 c 0,39,40
 851 671 851 671 795 694 c 0,41,42
 757 710 757 710 712 710 c 0,43,44
 611 710 611 710 546 632 c 0,45,46
 476 547 476 547 476 399 c 0,47,48
 476 245 476 245 538 77 c 0,49,50
 558 24 558 24 584 -27 c 1,51,-1
 584 -48 l 1,52,-1
 479 -130 l 1,53,-1
 465 -106 l 2,54,55
 368 51 368 51 337 272 c 0,56,57
 328 338 328 338 328 395 c 0,58,59
 328 547 328 547 386 657 c 0,60,61
 443 767 443 767 550 817 c 0,62,63
 619 850 619 850 701 850 c 0,64,65
 851 850 851 850 954 750 c 128,-1,66
 1057 650 1057 650 1057 496 c 0,0,1
EndSplineSet
EndChar

StartChar: uni1C6E
Encoding: 286 7278 30
Width: 1204
VWidth: 2048
Flags: W
AnchorPoint: "top" 594 927 basechar 0
AnchorPoint: "base" 594 -169 basechar 0
LayerCount: 2
Fore
SplineSet
365 578 m 1,0,-1
 350 578 l 1,1,-1
 341 578 l 1,2,-1
 246 655 l 1,3,-1
 259 674 l 2,4,5
 383 851 383 851 598 851 c 0,6,7
 803 851 803 851 938 682 c 2,8,-1
 951 665 l 1,9,-1
 443 76 l 1,10,11
 551 26 551 26 611 21 c 1,12,13
 660 21 660 21 703 37 c 0,14,15
 745 53 745 53 774 76 c 0,16,17
 803 100 803 100 832 135 c 2,18,-1
 839 144 l 1,19,-1
 855 144 l 1,20,-1
 863 144 l 1,21,-1
 959 69 l 1,22,-1
 944 49 l 2,23,24
 856 -71 856 -71 708 -104 c 0,25,26
 660 -115 660 -115 609 -116 c 0,27,28
 400 -116 400 -116 266 66 c 2,29,-1
 254 82 l 1,30,-1
 757 666 l 1,31,32
 652 710 652 710 597 714 c 1,33,34
 529 714 529 714 475 683 c 128,-1,35
 421 652 421 652 373 588 c 2,36,-1
 365 578 l 1,0,-1
EndSplineSet
EndChar

StartChar: uni1C6F
Encoding: 287 7279 31
Width: 1407
VWidth: 2048
Flags: W
AnchorPoint: "top" 706 923 basechar 0
AnchorPoint: "base" 686 -157 basechar 0
LayerCount: 2
Fore
SplineSet
407 573 m 1,0,-1
 394 573 l 1,1,-1
 384 573 l 1,2,-1
 296 650 l 1,3,-1
 309 668 l 2,4,5
 405 797 405 797 590 838 c 0,6,7
 648 851 648 851 707 851 c 0,8,9
 933 851 933 851 1086 677 c 2,10,-1
 1100 661 l 1,11,-1
 978 507 l 1,12,-1
 978 139 l 1,13,14
 985 146 985 146 999 162 c 1,15,-1
 1014 162 l 1,16,-1
 1023 162 l 1,17,-1
 1111 85 l 1,18,-1
 1098 67 l 2,19,20
 1052 3 1052 3 979 -40 c 0,21,22
 907 -83 907 -83 817 -103 c 0,23,24
 759 -116 759 -116 701 -116 c 0,25,26
 474 -116 474 -116 321 58 c 2,27,-1
 307 74 l 1,28,-1
 429 225 l 1,29,-1
 429 595 l 1,30,31
 422 588 422 588 407 573 c 1,0,-1
566 169 m 1,32,-1
 495 81 l 1,33,34
 590 19 590 19 700 18 c 0,35,36
 771 18 771 18 841 46 c 1,37,-1
 841 562 l 1,38,-1
 913 655 l 1,39,40
 818 717 818 717 707 717 c 0,41,42
 635 717 635 717 566 690 c 1,43,-1
 566 169 l 1,32,-1
EndSplineSet
EndChar

StartChar: uni1C70
Encoding: 288 7280 32
Width: 1635
VWidth: 2048
Flags: W
AnchorPoint: "top" 790 987 basechar 0
AnchorPoint: "base" 834 -173 basechar 0
LayerCount: 2
Fore
SplineSet
832 829 m 2,0,1
 898 829 898 829 959 812 c 0,2,3
 1019 795 1019 795 1064 767 c 128,-1,4
 1109 739 1109 739 1146 700 c 0,5,6
 1267 572 1267 572 1267 372 c 0,7,8
 1267 154 1267 154 1135 -8 c 0,9,10
 1091 -62 1091 -62 1034 -101 c 2,11,-1
 1014 -115 l 1,12,-1
 945 -20 l 1,13,-1
 945 -12 l 1,14,-1
 945 3 l 1,15,-1
 954 11 l 2,16,17
 1081 115 1081 115 1113 270 c 0,18,19
 1123 318 1123 318 1123 366 c 0,20,21
 1123 472 1123 472 1082 546 c 0,22,23
 1041 621 1041 621 969 660 c 0,24,25
 932 680 932 680 887 688 c 1,26,-1
 887 -94 l 1,27,-1
 797 -94 l 2,28,29
 608 -94 608 -94 488 34 c 128,-1,30
 368 162 368 162 368 363 c 0,31,32
 368 580 368 580 499 742 c 0,33,34
 543 796 543 796 601 837 c 2,35,-1
 621 852 l 1,36,-1
 690 755 l 1,37,-1
 690 747 l 1,38,-1
 690 733 l 1,39,-1
 681 726 l 2,40,41
 553 618 553 618 522 463 c 0,42,43
 513 416 513 416 512 369 c 0,44,45
 512 263 512 263 552 189 c 0,46,47
 592 114 592 114 662 75 c 0,48,49
 698 55 698 55 742 47 c 1,50,-1
 742 829 l 1,51,-1
 832 829 l 2,0,1
EndSplineSet
EndChar

StartChar: uni1C71
Encoding: 289 7281 33
Width: 1331
VWidth: 2048
Flags: W
AnchorPoint: "top" 694 927 basechar 0
AnchorPoint: "base" 702 -169 basechar 0
LayerCount: 2
Fore
SplineSet
945 144 m 1,0,-1
 954 144 l 1,1,-1
 1049 69 l 1,2,-1
 1035 49 l 2,3,4
 945 -70 945 -70 795 -104 c 0,5,6
 747 -115 747 -115 696 -116 c 0,7,8
 488 -116 488 -116 357 66 c 2,9,-1
 346 82 l 1,10,-1
 417 172 l 1,11,-1
 417 596 l 1,12,13
 411 589 411 589 397 573 c 1,14,-1
 382 573 l 1,15,-1
 373 573 l 1,16,-1
 285 649 l 1,17,-1
 298 668 l 2,18,19
 390 797 390 797 570 838 c 0,20,21
 626 851 626 851 684 851 c 0,22,23
 905 851 905 851 1052 676 c 2,24,-1
 1066 659 l 1,25,-1
 988 576 l 1,26,-1
 977 576 l 1,27,-1
 962 576 l 1,28,29
 946 593 946 593 938 602 c 1,30,-1
 526 80 l 1,31,32
 635 26 635 26 697 21 c 1,33,34
 770 21 770 21 824 51 c 128,-1,35
 878 81 878 81 923 135 c 2,36,-1
 931 144 l 1,37,-1
 945 144 l 1,0,-1
823 686 m 1,38,39
 752 717 752 717 686 717 c 0,40,41
 621 717 621 717 555 692 c 1,42,-1
 555 342 l 1,43,-1
 823 686 l 1,38,39
EndSplineSet
EndChar

StartChar: uni1C72
Encoding: 290 7282 34
Width: 1331
VWidth: 2048
Flags: W
AnchorPoint: "top" 626 919 basechar 0
AnchorPoint: "base" 646 -173 basechar 0
LayerCount: 2
Fore
SplineSet
400 591 m 1,0,-1
 386 591 l 1,1,-1
 377 591 l 1,2,-1
 282 666 l 1,3,-1
 296 686 l 2,4,5
 386 805 386 805 536 839 c 0,6,7
 584 850 584 850 635 851 c 0,8,9
 843 851 843 851 974 669 c 2,10,-1
 985 653 l 1,11,-1
 914 563 l 1,12,-1
 914 139 l 1,13,14
 920 146 920 146 934 162 c 1,15,-1
 949 162 l 1,16,-1
 958 162 l 1,17,-1
 1046 86 l 1,18,-1
 1033 67 l 2,19,20
 941 -62 941 -62 761 -103 c 0,21,22
 705 -116 705 -116 647 -116 c 0,23,24
 426 -116 426 -116 279 59 c 2,25,-1
 265 76 l 1,26,-1
 343 159 l 1,27,-1
 354 159 l 1,28,-1
 369 159 l 1,29,30
 385 142 385 142 393 133 c 1,31,-1
 805 655 l 1,32,33
 729 714 729 714 634 714 c 0,34,35
 584 714 584 714 540 698 c 0,36,37
 497 682 497 682 467 659 c 0,38,39
 437 635 437 635 408 600 c 2,40,-1
 400 591 l 1,0,-1
508 49 m 1,41,42
 579 18 579 18 645 18 c 0,43,44
 710 18 710 18 776 43 c 1,45,-1
 776 393 l 1,46,-1
 508 49 l 1,41,42
EndSplineSet
EndChar

StartChar: uni1C73
Encoding: 291 7283 35
Width: 1397
VWidth: 2048
Flags: W
AnchorPoint: "top" 710 931 basechar 0
AnchorPoint: "base" 690 -157 basechar 0
LayerCount: 2
Fore
SplineSet
685 712 m 0,0,1
 608 712 608 712 545 659 c 128,-1,2
 482 606 482 606 452 512 c 2,3,-1
 448 501 l 1,4,-1
 425 492 l 1,5,-1
 303 535 l 1,6,-1
 311 559 l 2,7,8
 343 656 343 656 406 726 c 0,9,10
 470 797 470 797 560 830 c 0,11,12
 619 851 619 851 684 851 c 0,13,14
 859 851 859 851 970 712 c 0,15,16
 1078 577 1078 577 1078 370 c 128,-1,17
 1078 163 1078 163 970 25 c 0,18,19
 859 -116 859 -116 684 -116 c 0,20,21
 556 -116 556 -116 457 -37 c 128,-1,22
 358 42 358 42 314 171 c 2,23,-1
 306 192 l 1,24,-1
 424 247 l 1,25,-1
 448 237 l 1,26,-1
 451 226 l 2,27,28
 473 158 473 158 514 109 c 0,29,30
 554 60 554 60 611 37 c 0,31,32
 646 23 646 23 685 23 c 0,33,34
 794 23 794 23 865 125 c 1,35,36
 840 118 840 118 811 118 c 0,37,38
 730 118 730 118 671 159 c 0,39,40
 612 199 612 199 584 264 c 0,41,42
 564 309 564 309 564 363 c 128,-1,43
 564 417 564 417 584 462 c 0,44,45
 603 507 603 507 634 538 c 0,46,47
 666 568 666 568 708 586 c 0,48,49
 748 603 748 603 792 603 c 0,50,51
 794 603 794 603 797 603 c 0,52,53
 844 603 844 603 881 588 c 1,54,55
 835 668 835 668 758 698 c 0,56,57
 724 712 724 712 685 712 c 0,0,1
737 282 m 0,58,59
 768 254 768 254 817 254 c 0,60,61
 843 254 843 254 865 263 c 0,62,63
 906 280 906 280 923 320 c 0,64,65
 931 339 931 339 932 358 c 0,66,67
 932 394 932 394 912 420 c 128,-1,68
 892 446 892 446 860 461 c 0,69,70
 839 470 839 470 816 470 c 0,71,72
 792 470 792 470 771 461 c 128,-1,73
 750 452 750 452 737 437 c 0,74,75
 723 423 723 423 714 403 c 0,76,77
 706 385 706 385 706 363 c 0,78,79
 706 333 706 333 714 314 c 0,80,81
 723 294 723 294 737 282 c 0,58,59
EndSplineSet
EndChar

StartChar: uni1C74
Encoding: 292 7284 36
Width: 1310
VWidth: 2048
Flags: W
AnchorPoint: "top" 642 927 basechar 0
AnchorPoint: "base" 610 -149 basechar 0
LayerCount: 2
Fore
SplineSet
721 843 m 1,0,-1
 739 843 l 1,1,2
 806 808 806 808 854 769 c 0,3,4
 901 729 901 729 938 675 c 128,-1,5
 975 621 975 621 995 549 c 0,6,7
 1014 478 1014 478 1014 392 c 0,8,9
 1014 186 1014 186 919 -2 c 0,10,11
 889 -61 889 -61 853 -110 c 2,12,-1
 838 -131 l 1,13,-1
 735 -50 l 1,14,-1
 735 -38 l 1,15,-1
 735 -28 l 1,16,-1
 739 -22 l 2,17,18
 832 120 832 120 858 291 c 0,19,20
 866 344 866 344 867 394 c 0,21,22
 867 592 867 592 737 677 c 1,23,-1
 477 485 l 1,24,-1
 477 -96 l 1,25,-1
 331 -96 l 1,26,-1
 331 827 l 1,27,-1
 477 827 l 1,28,-1
 477 660 l 1,29,-1
 721 843 l 1,0,-1
EndSplineSet
EndChar

StartChar: uni1C75
Encoding: 293 7285 37
Width: 1635
VWidth: 2048
Flags: W
AnchorPoint: "top" 838 935 basechar 0
AnchorPoint: "base" 802 -185 basechar 0
LayerCount: 2
Fore
SplineSet
512 366 m 0,0,1
 512 212 512 212 604 89 c 0,2,3
 636 47 636 47 681 11 c 2,4,-1
 690 3 l 1,5,-1
 690 -12 l 1,6,-1
 690 -20 l 1,7,-1
 621 -115 l 1,8,-1
 601 -101 l 2,9,10
 491 -26 491 -26 430 101 c 0,11,12
 399 164 399 164 383 235 c 0,13,14
 368 305 368 305 368 372 c 0,15,16
 368 572 368 572 489 701 c 0,17,18
 610 829 610 829 803 829 c 2,19,-1
 893 829 l 1,20,-1
 893 47 l 1,21,22
 966 60 966 60 1017 105 c 0,23,24
 1078 159 1078 159 1105 243 c 0,25,26
 1123 301 1123 301 1123 369 c 0,27,28
 1123 521 1123 521 1032 644 c 0,29,30
 1000 687 1000 687 954 726 c 2,31,-1
 945 733 l 1,32,-1
 945 747 l 1,33,-1
 945 755 l 1,34,-1
 1014 852 l 1,35,-1
 1034 837 l 2,36,37
 1116 779 1116 779 1172 693 c 0,38,39
 1228 606 1228 606 1252 497 c 0,40,41
 1267 430 1267 430 1267 363 c 0,42,43
 1267 163 1267 163 1147 34 c 0,44,45
 1027 -94 1027 -94 838 -94 c 2,46,-1
 748 -94 l 1,47,-1
 748 688 l 1,48,49
 672 675 672 675 620 630 c 0,50,51
 558 576 558 576 531 491 c 0,52,53
 512 434 512 434 512 366 c 0,0,1
EndSplineSet
EndChar

StartChar: uni1C76
Encoding: 294 7286 38
Width: 1392
VWidth: 2048
Flags: W
AnchorPoint: "top" 638 919 basechar 0
AnchorPoint: "base" 690 -173 basechar 0
LayerCount: 2
Fore
SplineSet
886 609 m 0,0,1
 859 637 859 637 859 677 c 0,2,3
 859 718 859 718 887 746 c 0,4,5
 914 773 914 773 952 773 c 0,6,7
 953 773 953 773 955 773 c 0,8,9
 996 773 996 773 1024 745 c 128,-1,10
 1052 717 1052 717 1052 677 c 0,11,12
 1052 650 1052 650 1040 629 c 0,13,14
 1025 603 1025 603 993 588 c 0,15,16
 977 581 977 581 959 581 c 0,17,18
 957 581 957 581 955 581 c 0,19,20
 914 581 914 581 886 609 c 0,0,1
921 334 m 0,21,22
 921 369 921 369 913 476 c 1,23,-1
 926 494 l 1,24,-1
 1054 516 l 1,25,-1
 1057 490 l 2,26,27
 1069 403 1069 403 1069 334 c 0,28,29
 1069 182 1069 182 1011 72 c 0,30,31
 954 -38 954 -38 847 -88 c 0,32,33
 778 -121 778 -121 696 -121 c 0,34,35
 546 -121 546 -121 443 -21 c 128,-1,36
 340 79 340 79 340 233 c 0,37,38
 340 303 340 303 361 376 c 2,39,-1
 367 394 l 1,40,-1
 401 394 l 1,41,-1
 408 385 l 2,42,43
 451 333 451 333 508 313 c 0,44,45
 525 307 525 307 540 307 c 0,46,47
 575 307 575 307 596 332 c 0,48,49
 615 354 615 354 626 394 c 0,50,51
 636 433 636 433 636 487 c 0,52,53
 636 636 636 636 572 679 c 0,54,55
 556 689 556 689 540 690 c 0,56,57
 511 690 511 690 483 658 c 0,58,59
 451 622 451 622 433 562 c 2,60,-1
 425 533 l 1,61,-1
 298 599 l 1,62,-1
 305 619 l 2,63,64
 340 726 340 726 404 781 c 0,65,66
 461 829 461 829 534 830 c 0,67,68
 640 830 640 830 711 731 c 128,-1,69
 782 632 782 632 782 480 c 128,-1,70
 782 328 782 328 717 244 c 0,71,72
 656 165 656 165 561 165 c 0,73,74
 519 165 519 165 480 182 c 1,75,76
 487 139 487 139 511 106 c 0,77,78
 546 58 546 58 602 35 c 0,79,80
 640 19 640 19 685 19 c 0,81,82
 786 19 786 19 851 98 c 0,83,84
 921 183 921 183 921 334 c 0,21,22
EndSplineSet
EndChar

StartChar: uni1C77
Encoding: 295 7287 39
Width: 1498
VWidth: 2048
Flags: W
AnchorPoint: "top" 742 971 basechar 0
AnchorPoint: "base" 754 -165 basechar 0
LayerCount: 2
Fore
SplineSet
950 269 m 0,0,1
 828 269 828 269 732 312 c 0,2,3
 636 354 636 354 575 429 c 0,4,5
 512 507 512 507 512 600 c 0,6,7
 512 658 512 658 531 705 c 0,8,9
 551 752 551 752 584 782 c 0,10,11
 617 813 617 813 662 833 c 0,12,13
 707 852 707 852 766 852 c 0,14,15
 930 852 930 852 1042 703 c 0,16,17
 1093 636 1093 636 1122 544 c 128,-1,18
 1151 452 1151 452 1151 347 c 0,19,20
 1151 129 1151 129 1028 -17 c 0,21,22
 985 -67 985 -67 927 -105 c 2,23,-1
 921 -109 l 1,24,-1
 910 -109 l 1,25,-1
 900 -109 l 1,26,-1
 741 46 l 1,27,-1
 605 -109 l 1,28,-1
 594 -109 l 1,29,-1
 584 -109 l 1,30,-1
 579 -107 l 2,31,32
 455 -48 455 -48 393 40 c 0,33,34
 332 127 332 127 332 247 c 0,35,36
 332 344 332 344 372 468 c 1,37,-1
 381 495 l 1,38,-1
 506 437 l 1,39,-1
 506 421 l 1,40,-1
 506 414 l 1,41,42
 477 328 477 328 476 255 c 0,43,44
 476 182 476 182 504 129 c 0,45,46
 527 86 527 86 564 65 c 1,47,-1
 721 240 l 1,48,-1
 732 240 l 1,49,-1
 736 240 l 1,50,-1
 746 240 l 1,51,-1
 918 68 l 1,52,53
 951 100 951 100 972 154 c 0,54,55
 993 207 993 207 1002 272 c 1,56,57
 977 269 977 269 950 269 c 0,0,1
772 713 m 0,58,59
 745 713 745 713 723 704 c 128,-1,60
 701 695 701 695 687 679 c 0,61,62
 673 664 673 664 665 642 c 0,63,64
 656 620 656 620 656 593 c 0,65,66
 656 515 656 515 736 464 c 0,67,68
 821 409 821 409 952 409 c 0,69,70
 978 409 978 409 1003 411 c 1,71,72
 988 537 988 537 922 625 c 0,73,74
 855 713 855 713 772 713 c 0,58,59
EndSplineSet
EndChar

StartChar: uni1C78
Encoding: 296 7288 40
Width: 0
VWidth: 2048
GlyphClass: 4
Flags: W
AnchorPoint: "top" -253 945 mark 0
LayerCount: 2
Fore
SplineSet
-87 941 m 0,0,1
 -87 982 -87 982 -60 1010 c 0,2,3
 -33 1037 -33 1037 6 1037 c 0,4,5
 7 1037 7 1037 9 1037 c 0,6,7
 50 1037 50 1037 78 1009 c 0,8,9
 105 982 105 982 105 944 c 0,10,11
 105 914 105 914 93 893 c 0,12,13
 78 867 78 867 46 852 c 0,14,15
 30 845 30 845 10 845 c 0,16,17
 8 845 8 845 5 845 c 0,18,19
 -18 845 -18 845 -40 857 c 0,20,21
 -62 870 -62 870 -75 892 c 0,22,23
 -87 915 -87 915 -87 941 c 0,0,1
EndSplineSet
EndChar

StartChar: uni1C79
Encoding: 297 7289 41
Width: 0
VWidth: 2048
GlyphClass: 4
Flags: W
AnchorPoint: "base" -278 -205 mark 0
LayerCount: 2
Fore
SplineSet
-100 -217 m 0,0,1
 -100 -190 -100 -190 -88 -168 c 0,2,3
 -75 -146 -75 -146 -53 -133 c 128,-1,4
 -31 -120 -31 -120 -4 -120 c 0,5,6
 37 -120 37 -120 65 -148 c 0,7,8
 92 -175 92 -175 92 -214 c 0,9,10
 92 -244 92 -244 80 -265 c 0,11,12
 65 -291 65 -291 33 -305 c 0,13,14
 15 -313 15 -313 -4 -313 c 0,15,16
 -45 -313 -45 -313 -73 -285 c 0,17,18
 -100 -258 -100 -258 -100 -217 c 0,0,1
EndSplineSet
EndChar

StartChar: uni1C7A
Encoding: 298 7290 42
Width: 488
VWidth: 2048
Flags: W
LayerCount: 2
Fore
SplineSet
148 709 m 0,0,1
 148 750 148 750 175 778 c 0,2,3
 203 806 203 806 244 806 c 128,-1,4
 285 806 285 806 313 778 c 0,5,6
 340 751 340 751 340 712 c 0,7,8
 340 682 340 682 328 661 c 0,9,10
 313 635 313 635 281 621 c 0,11,12
 263 613 263 613 240 613 c 128,-1,13
 217 613 217 613 195 626 c 128,-1,14
 173 639 173 639 160 661 c 0,15,16
 148 683 148 683 148 709 c 0,0,1
148 15 m 0,17,18
 148 42 148 42 160 64 c 0,19,20
 173 86 173 86 195 99 c 128,-1,21
 217 112 217 112 244 112 c 0,22,23
 285 112 285 112 313 83 c 0,24,25
 340 56 340 56 340 18 c 0,26,27
 340 -12 340 -12 328 -34 c 0,28,29
 313 -60 313 -60 281 -74 c 0,30,31
 263 -82 263 -82 244 -82 c 0,32,33
 203 -82 203 -82 175 -54 c 0,34,35
 148 -26 148 -26 148 15 c 0,17,18
EndSplineSet
EndChar

StartChar: uni1C7B
Encoding: 299 7291 43
Width: 764
VWidth: 2048
Flags: W
LayerCount: 2
Fore
SplineSet
302 513 m 0,0,1
 290 513 290 513 282 508 c 128,-1,2
 274 503 274 503 271 499 c 0,3,4
 266 492 266 492 251 462 c 1,5,-1
 222 462 l 1,6,-1
 156 521 l 1,7,-1
 163 538 l 2,8,9
 184 587 184 587 211 615 c 0,10,11
 243 647 243 647 297 647 c 0,12,13
 332 647 332 647 403 625 c 0,14,15
 409 623 409 623 419 620 c 0,16,17
 452 609 452 609 463 607 c 128,-1,18
 474 605 474 605 483 606 c 0,19,20
 492 606 492 606 498 611 c 0,21,22
 508 619 508 619 519 637 c 2,23,-1
 526 648 l 1,24,-1
 544 648 l 1,25,-1
 558 648 l 1,26,-1
 607 570 l 1,27,-1
 600 557 l 2,28,29
 575 510 575 510 545 491 c 128,-1,30
 515 472 515 472 484 472 c 128,-1,31
 453 472 453 472 392 492 c 0,32,33
 330 513 330 513 302 513 c 0,0,1
EndSplineSet
EndChar

StartChar: uni1C7C
Encoding: 300 7292 44
Width: 631
VWidth: 2048
Flags: W
LayerCount: 2
Fore
SplineSet
158 627 m 1,0,-1
 473 627 l 1,1,-1
 473 491 l 1,2,-1
 158 491 l 1,3,-1
 158 627 l 1,0,-1
EndSplineSet
EndChar

StartChar: uni1C7D
Encoding: 301 7293 45
Width: 1071
VWidth: 2048
Flags: W
LayerCount: 2
Fore
SplineSet
808 355 m 0,0,1
 808 44 808 44 577 -105 c 2,2,-1
 571 -109 l 1,3,-1
 560 -109 l 1,4,-1
 549 -109 l 1,5,-1
 269 185 l 1,6,-1
 352 277 l 1,7,-1
 363 277 l 1,8,-1
 377 277 l 1,9,-1
 569 69 l 1,10,11
 601 100 601 100 623 149 c 128,-1,12
 645 198 645 198 656 259 c 1,13,14
 644 258 644 258 634 258 c 0,15,16
 472 258 472 258 355 363 c 0,17,18
 282 429 282 429 253 521 c 0,19,20
 239 566 239 566 238 614 c 0,21,22
 238 695 238 695 276 752 c 0,23,24
 313 809 313 809 377 835 c 0,25,26
 419 852 419 852 467 852 c 0,27,28
 567 852 567 852 648 781 c 0,29,30
 763 680 763 680 797 485 c 0,31,32
 808 423 808 423 808 355 c 0,0,1
473 713 m 0,33,34
 430 713 430 713 406 684 c 128,-1,35
 382 655 382 655 382 605 c 0,36,37
 382 521 382 521 451 461 c 0,38,39
 524 397 524 397 639 397 c 0,40,41
 650 397 650 397 662 398 c 1,42,43
 654 530 654 530 601 622 c 0,44,45
 548 713 548 713 473 713 c 0,33,34
EndSplineSet
EndChar

StartChar: uni1C7E
Encoding: 302 7294 46
Width: 510
VWidth: 2048
Flags: W
LayerCount: 2
Fore
SplineSet
182 595 m 1,0,-1
 328 595 l 1,1,-1
 328 140 l 1,2,-1
 182 140 l 1,3,-1
 182 595 l 1,0,-1
EndSplineSet
EndChar

StartChar: uni1C7F
Encoding: 303 7295 47
Width: 884
VWidth: 2048
Flags: W
LayerCount: 2
Fore
SplineSet
257 595 m 1,0,-1
 403 595 l 1,1,-1
 403 140 l 1,2,-1
 257 140 l 1,3,-1
 257 595 l 1,0,-1
481 595 m 1,4,-1
 627 595 l 1,5,-1
 627 140 l 1,6,-1
 481 140 l 1,7,-1
 481 595 l 1,4,-1
EndSplineSet
EndChar

StartChar: exclam
Encoding: 33 33 48
Width: 224
VWidth: 944
Flags: W
LayerCount: 2
Fore
SplineSet
73 -98 m 1,0,-1
 34 599 l 1,1,2
 34 643 34 643 61 672 c 128,-1,3
 88 701 88 701 125 702 c 0,4,5
 162 702 162 702 187 675 c 0,6,7
 212 649 212 649 212 608 c 1,8,-1
 184 -98 l 1,9,-1
 73 -98 l 1,0,-1
131 -126 m 0,10,11
 170 -126 170 -126 195 -157 c 128,-1,12
 220 -188 220 -188 220 -226 c 0,13,14
 220 -265 220 -265 197 -294 c 0,15,16
 172 -325 172 -325 131 -325 c 0,17,18
 85 -325 85 -325 60 -294 c 0,19,20
 37 -266 37 -266 37 -225 c 0,21,22
 37 -185 37 -185 55 -159 c 0,23,24
 80 -126 80 -126 131 -126 c 0,10,11
EndSplineSet
EndChar

StartChar: quotedbl
Encoding: 34 34 49
Width: 347
VWidth: 1112
Flags: W
LayerCount: 2
Fore
SplineSet
129 801 m 1,0,-1
 104 883 l 1,1,-1
 73 803 l 1,2,-1
 108 759 l 1,3,-1
 129 801 l 1,0,-1
276 801 m 1,4,-1
 252 884 l 1,5,-1
 220 803 l 1,6,-1
 255 759 l 1,7,-1
 276 801 l 1,4,-1
EndSplineSet
EndChar

StartChar: numbersign
Encoding: 35 35 50
Width: 879
VWidth: 946
Flags: W
LayerCount: 2
Fore
SplineSet
316 125 m 1,0,-1
 227 125 l 1,1,-1
 228 115 l 1,2,-1
 271 115 l 1,3,-1
 308 115 l 1,4,-1
 230 -77 l 1,5,-1
 236 -77 l 1,6,-1
 308 97 l 1,7,-1
 531 97 l 1,8,-1
 424 -80 l 1,9,-1
 444 -85 l 1,10,-1
 544 97 l 1,11,-1
 654 97 l 1,12,-1
 654 117 l 1,13,-1
 564 109 l 1,14,-1
 651 276 l 1,15,-1
 754 282 l 1,16,-1
 757 299 l 1,17,-1
 650 299 l 1,18,-1
 711 476 l 1,19,-1
 696 477 l 1,20,-1
 637 312 l 1,21,-1
 407 304 l 1,22,-1
 447 402 l 1,23,-1
 402 293 l 1,24,-1
 400 293 l 1,25,-1
 316 125 l 1,0,-1
430 300 m 1,26,27
 493 303 493 303 528 303 c 0,28,29
 583 303 583 303 600 296 c 0,30,31
 612 291 612 291 617 281 c 2,32,-1
 623 270 l 1,33,-1
 551 119 l 1,34,-1
 331 119 l 1,35,-1
 430 300 l 1,26,27
EndSplineSet
EndChar

StartChar: dollar
Encoding: 36 36 51
Width: 815
VWidth: 853
Flags: W
LayerCount: 2
Fore
SplineSet
407 774 m 1,0,-1
 407 830 l 1,1,-1
 534 830 l 1,2,-1
 534 775 l 1,3,4
 674 759 674 759 725 667 c 0,5,6
 750 622 750 622 750 563 c 2,7,-1
 750 539 l 1,8,-1
 614 539 l 1,9,-1
 614 563 l 2,10,11
 613 624 613 624 558 650 c 0,12,13
 547 655 547 655 534 658 c 1,14,-1
 534 462 l 1,15,16
 626 441 626 441 673 418 c 0,17,18
 728 388 728 388 752 338 c 0,19,20
 772 299 772 299 772 248 c 2,21,-1
 772 248 l 1,22,-1
 772 247 l 1,23,24
 768 112 768 112 666 51 c 0,25,26
 615 24 615 24 534 15 c 1,27,-1
 534 -87 l 1,28,-1
 407 -87 l 1,29,-1
 407 15 l 1,30,31
 336 22 336 22 286 45 c 0,32,33
 218 80 218 80 190 152 c 0,34,35
 176 192 176 192 176 241 c 2,36,-1
 176 252 l 2,37,38
 176 258 176 258 179 284 c 1,39,-1
 305 284 l 1,40,-1
 312 237 l 2,41,42
 316 207 316 207 321.5 193 c 128,-1,43
 327 179 327 179 332 174 c 0,44,45
 359 144 359 144 407 132 c 1,46,-1
 407 350 l 1,47,48
 309 375 309 375 272 399 c 0,49,50
 189 455 189 455 189 560 c 0,51,52
 189 630 189 630 221 679 c 0,53,54
 261 740 261 740 359 765 c 0,55,56
 382 770 382 770 407 774 c 1,0,-1
336 607 m 1,57,-1
 333 579 l 1,58,59
 333 540 333 540 366 515 c 0,60,61
 384 501 384 501 414 491 c 1,62,-1
 414 672 l 1,63,64
 392 666 392 666 376 657 c 0,65,66
 345 639 345 639 336 607 c 1,57,-1
541 119 m 1,67,68
 580 127 580 127 602 145 c 0,69,70
 643 179 643 179 643 228.5 c 128,-1,71
 643 278 643 278 601 301 c 0,72,73
 580 312 580 312 541 324 c 1,74,-1
 541 119 l 1,67,68
EndSplineSet
EndChar

StartChar: percent
Encoding: 37 37 52
Width: 798
VWidth: 930
Flags: W
LayerCount: 2
Fore
SplineSet
844 517 m 1,0,-1
 331 -295 l 1,1,-1
 244 -210 l 1,2,-1
 757 601 l 1,3,-1
 844 517 l 1,0,-1
380 448 m 128,-1,5
 380 456 380 456 373 462 c 0,6,7
 370 464 370 464 368.5 464 c 128,-1,8
 367 464 367 464 365.5 463.5 c 128,-1,9
 364 463 364 463 363 462 c 0,10,11
 357 456 357 456 357 447.5 c 128,-1,12
 357 439 357 439 362 433 c 0,13,14
 363 432 363 432 364.5 431.5 c 128,-1,15
 366 431 366 431 369 431 c 2,16,-1
 369 431 l 2,17,18
 370 431 370 431 373 434 c 0,19,4
 380 440 380 440 380 448 c 128,-1,5
468 540 m 0,20,21
 499 500 499 500 499 443 c 0,22,23
 499 395 499 395 469 352 c 0,24,25
 454 331 454 331 434 319 c 0,26,27
 407 303 407 303 376 303 c 0,28,29
 315 303 315 303 285 349 c 0,30,31
 259 389 259 389 259 443 c 128,-1,32
 259 497 259 497 285 538 c 0,33,34
 301 564 301 564 326 576 c 0,35,36
 346 587 346 587 375 587 c 0,37,38
 406 587 406 587 433 571 c 0,39,40
 453 559 453 559 468 540 c 0,20,21
709 -96.5 m 128,-1,42
 709 -82 709 -82 702 -73 c 0,43,44
 700 -71 700 -71 699.5 -70 c 128,-1,45
 699 -69 699 -69 698 -69 c 0,46,47
 695 -69 695 -69 692 -73 c 0,48,49
 685 -83 685 -83 685 -98.5 c 128,-1,50
 685 -114 685 -114 692 -123 c 0,51,52
 694 -125 694 -125 695 -126 c 128,-1,53
 696 -127 696 -127 698 -127 c 0,54,55
 699 -126 699 -126 702 -123 c 0,56,41
 709 -111 709 -111 709 -96.5 c 128,-1,42
787 10 m 0,57,58
 813 -33 813 -33 813 -96 c 0,59,60
 813 -149 813 -149 788 -195 c 0,61,62
 775 -218 775 -218 758 -231 c 0,63,64
 735 -249 735 -249 705 -249 c 0,65,66
 636 -249 636 -249 601 -199 c 0,67,68
 571 -156 571 -156 571 -96.5 c 128,-1,69
 571 -37 571 -37 601 8 c 0,70,71
 620 36 620 36 649 49 c 0,72,73
 673 60 673 60 704 60 c 0,74,75
 734 60 734 60 757 44 c 0,76,77
 774 31 774 31 787 10 c 0,57,58
EndSplineSet
EndChar

StartChar: ampersand
Encoding: 38 38 53
Width: 977
VWidth: 982
Flags: W
LayerCount: 2
Fore
SplineSet
564 16 m 2,0,1
 544 9 544 9 528 8 c 0,2,3
 513 8 513 8 500 10 c 0,4,5
 402 10 402 10 349 33 c 1,6,7
 270 56 270 56 220 99 c 1,8,9
 206 115 206 115 198 136 c 0,10,11
 189 157 189 157 188 181 c 0,12,-1
 188 182 l 0,13,14
 188 216 188 216 216 250 c 2,15,-1
 217 253 l 1,16,17
 236 269 236 269 270 290 c 0,18,19
 303 312 303 312 317 324 c 1,20,21
 343 341 343 341 391 372 c 1,22,-1
 402 343 l 2,23,24
 427 279 427 279 457 231 c 1,25,26
 505 126 505 126 573 57 c 2,27,-1
 601 29 l 1,28,-1
 564 16 l 2,0,1
522 905 m 0,29,30
 489 910 489 910 475 910 c 0,31,32
 473 910 473 910 471 910 c 0,33,34
 457 910 457 910 431 894 c 0,35,36
 422 888 422 888 416 883 c 2,37,-1
 381 848 l 2,38,39
 376 842 376 842 376 839 c 0,40,41
 376 829 376 829 373 822 c 0,42,43
 370 814 370 814 370 811 c 0,44,45
 370 805 370 805 368 799 c 128,-1,46
 366 793 366 793 366 791 c 0,47,48
 365 785 365 785 357 765 c 1,49,-1
 346 671 l 1,50,-1
 348 578 l 1,51,-1
 363 461 l 1,52,53
 372 429 372 429 388 381 c 1,54,55
 360 363 360 363 347 354 c 0,56,57
 332 341 332 341 292 315 c 128,-1,58
 252 289 252 289 234 272 c 0,59,60
 197 235 197 235 195 232 c 0,61,62
 168 203 168 203 168 182 c 0,63,-1
 168 181 l 2,64,-1
 168 180 l 2,65,66
 168 167 168 167 173 155 c 128,-1,67
 178 143 178 143 184 136 c 128,-1,68
 190 129 190 129 203 116 c 2,69,-1
 244 75 l 2,70,71
 286 33 286 33 367 9 c 1,72,73
 410 -10 410 -10 494 -10 c 0,74,75
 498 -10 498 -10 502 -10 c 2,76,-1
 504 -10 l 1,77,78
 515 -12 515 -12 524 -12 c 0,79,80
 543 -12 543 -12 569 2 c 0,81,82
 583 10 583 10 608 22 c 1,83,-1
 620 10 l 2,84,85
 656 -24 656 -24 698 -50 c 0,86,87
 720 -62 720 -62 756 -71 c 1,88,-1
 764 -63 l 1,89,-1
 751 -50 l 1,90,-1
 724 -43 l 2,91,92
 714 -40 714 -40 699 -34 c 0,93,94
 682 -27 682 -27 667 -19 c 0,95,96
 653 -10 653 -10 634 4 c 2,97,-1
 610 21 l 1,98,-1
 661 72 l 2,99,100
 683 94 683 94 691 130 c 1,101,102
 686 135 686 135 682 140 c 1,103,104
 676 134 676 134 672 130 c 0,105,106
 672 128 672 128 671 126 c 0,107,108
 663 88 663 88 644 60 c 2,109,-1
 642 55 l 1,110,111
 625 44 625 44 621 43 c 128,-1,112
 617 42 617 42 598 32 c 1,113,-1
 585 46 l 2,114,115
 526 114 526 114 483 207 c 1,116,117
 444 272 444 272 412 364 c 2,118,-1
 406 382 l 1,119,-1
 421 393 l 2,120,121
 470 428 470 428 526 480 c 0,122,123
 534 487 534 487 577 530 c 0,124,125
 665 618 665 618 684 727 c 1,126,127
 678 782 678 782 645 821 c 0,128,129
 641 826 641 826 637 831 c 2,130,-1
 601 866 l 2,131,132
 570 897 570 897 522 905 c 0,29,30
472 890 m 0,133,134
 488 890 488 890 533 883 c 128,-1,135
 578 876 578 876 615 849 c 2,136,-1
 618 847 l 1,137,-1
 620 844 l 2,138,139
 657 795 657 795 664 728 c 2,140,-1
 664 725 l 1,141,-1
 663 722 l 2,142,143
 643 607 643 607 559 512 c 1,144,145
 504 462 504 462 459 430 c 0,146,147
 446 420 446 420 403 390 c 1,148,149
 389 436 389 436 385 451 c 1,150,-1
 368 574 l 1,151,-1
 366 673 l 1,152,-1
 379 777 l 1,153,154
 384 790 384 790 386 797 c 0,155,156
 386 800 386 800 388 806 c 128,-1,157
 390 812 390 812 390 813 c 0,158,159
 390 820 390 820 393 829 c 0,160,161
 396 837 396 837 396 839 c 0,162,163
 396 847 396 847 398 855 c 2,164,-1
 401 864 l 1,165,-1
 410 869 l 2,166,167
 445 890 445 890 472 890 c 0,133,134
EndSplineSet
EndChar

StartChar: quotesingle
Encoding: 39 39 54
Width: 328
VWidth: 1204
Flags: W
LayerCount: 2
Fore
SplineSet
205 801 m 1,0,-1
 181 883 l 1,1,-1
 150 803 l 1,2,-1
 184 759 l 1,3,-1
 205 801 l 1,0,-1
EndSplineSet
EndChar

StartChar: parenleft
Encoding: 40 40 55
Width: 711
VWidth: 1132
Flags: W
LayerCount: 2
Fore
SplineSet
113 352 m 0,0,1
 113 612 113 612 329 845 c 2,2,-1
 345 863 l 1,3,-1
 434 786 l 1,4,-1
 416 767 l 2,5,6
 326 673 326 673 277 569 c 128,-1,7
 228 465 228 465 228 354 c 0,8,9
 228 206 228 206 286 110 c 0,10,11
 318 58 318 58 421 -41 c 2,12,-1
 438 -57 l 1,13,-1
 365 -142 l 1,14,-1
 347 -128 l 2,15,16
 227 -40 227 -40 170 82 c 128,-1,17
 113 204 113 204 113 352 c 0,0,1
EndSplineSet
EndChar

StartChar: parenright
Encoding: 41 41 56
Width: 632
VWidth: 1133
Flags: W
LayerCount: 2
Fore
SplineSet
617 352 m 0,0,1
 617 197 617 197 560 73 c 128,-1,2
 503 -51 503 -51 379 -144 c 2,3,-1
 361 -158 l 1,4,-1
 286 -72 l 1,5,-1
 303 -56 l 2,6,7
 410 50 410 50 440 99 c 0,8,9
 500 197 500 197 500 349 c 0,10,11
 500 467 500 467 451 575 c 128,-1,12
 402 683 402 683 309 782 c 2,13,-1
 293 800 l 1,14,-1
 378 882 l 1,15,-1
 395 863 l 2,16,17
 509 739 509 739 564 617 c 0,18,19
 617 494 617 494 617 352 c 0,0,1
EndSplineSet
EndChar

StartChar: asterisk
Encoding: 42 42 57
Width: 721
VWidth: 912
Flags: W
LayerCount: 2
Fore
SplineSet
368 151 m 1,0,-1
 518 65 l 1,1,-1
 443 203 l 1,2,-1
 545 296 l 1,3,-1
 416 283 l 1,4,-1
 387 429 l 1,5,-1
 323 293 l 1,6,-1
 163 309 l 1,7,-1
 280 182 l 1,8,-1
 220 65 l 1,9,-1
 368 151 l 1,0,-1
EndSplineSet
EndChar

StartChar: plus
Encoding: 43 43 58
Width: 803
VWidth: 856
Flags: W
LayerCount: 2
Fore
SplineSet
440 285 m 1,0,-1
 680 286 l 1,1,-1
 650 335 l 1,2,-1
 440 335 l 1,3,-1
 440 569 l 1,4,-1
 391 537 l 1,5,-1
 391 335 l 1,6,-1
 133 335 l 1,7,-1
 169 292 l 1,8,-1
 386 290 l 1,9,-1
 385 35 l 1,10,-1
 403 47 l 1,11,-1
 440 73 l 1,12,-1
 440 285 l 1,0,-1
EndSplineSet
EndChar

StartChar: comma
Encoding: 44 44 59
Width: 251
VWidth: 649
Flags: W
LayerCount: 2
Fore
SplineSet
166 -8 m 1,0,1
 172 10 172 10 172 28 c 128,-1,2
 172 46 172 46 163 64 c 0,3,4
 145 97 145 97 93 104 c 0,5,6
 91 104 91 104 89 104 c 0,7,8
 82 104 82 104 80 101 c 0,9,10
 77 96 77 96 76 85 c 1,11,-1
 92 38 l 1,12,-1
 166 -8 l 1,0,1
EndSplineSet
EndChar

StartChar: hyphen
Encoding: 45 45 60
Width: 686
VWidth: 884
Flags: W
LayerCount: 2
Fore
SplineSet
179 -18 m 1,0,-1
 239 98 l 1,1,-1
 624 98 l 1,2,-1
 554 -18 l 1,3,-1
 179 -18 l 1,0,-1
EndSplineSet
EndChar

StartChar: period
Encoding: 46 46 61
Width: 303
VWidth: 666
Flags: W
LayerCount: 2
Fore
SplineSet
86 -450 m 0,0,1
 107 -423 107 -423 144 -423 c 0,2,3
 180 -423 180 -423 201 -448 c 0,4,5
 221 -472 221 -472 221 -504 c 128,-1,6
 221 -536 221 -536 202 -560 c 0,7,8
 181 -588 181 -588 144 -588 c 128,-1,9
 107 -588 107 -588 87 -563 c 0,10,11
 67 -539 67 -539 67 -507 c 0,12,13
 67 -474 67 -474 86 -450 c 0,0,1
EndSplineSet
EndChar

StartChar: slash
Encoding: 47 47 62
Width: 871
VWidth: 929
Flags: W
LayerCount: 2
Fore
SplineSet
175 -71 m 1,0,-1
 65 11 l 1,1,-1
 697 862 l 1,2,-1
 807 780 l 1,3,-1
 175 -71 l 1,0,-1
EndSplineSet
EndChar

StartChar: colon
Encoding: 58 58 63
Width: 548
VWidth: 1139
Flags: W
LayerCount: 2
Fore
SplineSet
301 573 m 0,0,1
 301 534 301 534 276 500 c 0,2,3
 248 464 248 464 203 464 c 0,4,5
 152 464 152 464 125 497 c 0,6,7
 98 529 98 529 98 572 c 128,-1,8
 98 615 98 615 124 647 c 0,9,10
 152 682 152 682 203 683 c 0,11,12
 248 683 248 683 275 650 c 0,13,14
 301 619 301 619 301 573 c 0,0,1
181 140 m 0,15,16
 220 140 220 140 244 112 c 0,17,18
 267 84 267 84 267 48 c 128,-1,19
 267 12 267 12 245 -17 c 0,20,21
 221 -49 221 -49 181 -49 c 0,22,23
 137 -49 137 -49 114 -21 c 128,-1,24
 91 7 91 7 91 44 c 128,-1,25
 91 81 91 81 112 109 c 0,26,27
 136 140 136 140 181 140 c 0,15,16
EndSplineSet
EndChar

StartChar: semicolon
Encoding: 59 59 64
Width: 653
VWidth: 1179
Flags: W
LayerCount: 2
Fore
SplineSet
300 764 m 0,0,1
 336 764 336 764 357 739 c 128,-1,2
 378 714 378 714 378 681 c 128,-1,3
 378 648 378 648 358 622 c 0,4,5
 337 594 337 594 301 594 c 0,6,7
 300 594 300 594 298 594 c 0,8,9
 260 594 260 594 239 619 c 128,-1,10
 218 644 218 644 218 678 c 0,11,12
 218 711 218 711 238 736 c 0,13,14
 260 764 260 764 300 764 c 0,0,1
345 211 m 0,15,16
 345 218 345 218 331 228 c 128,-1,17
 317 238 317 238 305 244 c 1,18,19
 305 231 305 231 314 199 c 1,20,-1
 281 156 l 1,21,22
 306 169 306 169 321 181 c 0,23,24
 345 200 345 200 345 211 c 0,15,16
EndSplineSet
EndChar

StartChar: less
Encoding: 60 60 65
Width: 676
VWidth: 1130
Flags: W
LayerCount: 2
Fore
SplineSet
133 330 m 1,0,-1
 594 725 l 1,1,-1
 658 630 l 1,2,-1
 307 315 l 1,3,-1
 667 -51 l 1,4,-1
 576 -133 l 1,5,-1
 133 330 l 1,0,-1
EndSplineSet
EndChar

StartChar: equal
Encoding: 61 61 66
Width: 961
VWidth: 1163
Flags: W
LayerCount: 2
Fore
SplineSet
354 213 m 1,0,-1
 384 160 l 1,1,-1
 796 160 l 1,2,-1
 771 213 l 1,3,-1
 354 213 l 1,0,-1
327 594 m 1,4,-1
 357 541 l 1,5,-1
 769 541 l 1,6,-1
 744 594 l 1,7,-1
 327 594 l 1,4,-1
EndSplineSet
EndChar

StartChar: greater
Encoding: 62 62 67
Width: 1096
VWidth: 1126
Flags: W
LayerCount: 2
Fore
SplineSet
612 -73 m 1,0,-1
 985 316 l 1,1,-1
 606 641 l 1,2,-1
 598 628 l 1,3,-1
 955 307 l 1,4,-1
 595 -59 l 1,5,-1
 612 -73 l 1,0,-1
EndSplineSet
EndChar

StartChar: question
Encoding: 63 63 68
Width: 907
VWidth: 1038
Flags: W
LayerCount: 2
Fore
SplineSet
505 665 m 1,0,1
 529 690 529 690 568 690 c 0,2,3
 619 690 619 690 644 658 c 0,4,5
 663 633 663 633 663 592 c 0,6,7
 663 542 663 542 626 514 c 0,8,9
 592 488 592 488 540 488 c 0,10,11
 472 488 472 488 420 540 c 0,12,13
 355 604 355 604 355 710 c 0,14,15
 355 810 355 810 440 877 c 0,16,17
 524 945 524 945 630 945 c 0,18,19
 750 945 750 945 832 864 c 0,20,21
 913 783 913 783 913 663 c 0,22,23
 913 540 913 540 760 389 c 0,24,25
 647 278 647 278 627 230 c 0,26,27
 623 222 623 222 623 217 c 0,28,29
 623 181 623 181 642 155 c 0,30,31
 648 148 648 148 662 137 c 2,32,-1
 692 116 l 1,33,-1
 561 29 l 1,34,-1
 546 46 l 2,35,36
 529 66 529 66 516 88 c 0,37,38
 483 146 483 146 483 212 c 0,39,40
 483 254 483 254 526 319 c 0,41,42
 575 395 575 395 685 510 c 0,43,44
 768 595 768 595 768 663 c 0,45,46
 768 715 768 715 726 759 c 128,-1,47
 684 803 684 803 632 803 c 0,48,49
 579 803 579 803 542 774 c 0,50,51
 505 746 505 746 497 707 c 0,52,53
 495 698 495 698 495 692 c 0,54,55
 495 674 495 674 505 665 c 1,0,1
570 603 m 0,56,57
 568 601 568 601 568 598 c 0,58,59
 568 596 568 596 568 593 c 128,-1,60
 568 590 568 590 570 588 c 0,61,62
 571 587 571 587 574 587 c 128,-1,63
 577 587 577 587 579 588 c 0,64,65
 580 590 580 590 580 595 c 128,-1,66
 580 600 580 600 577 603 c 0,67,68
 576 604 576 604 574 603 c 0,69,70
 572 604 572 604 570 603 c 0,56,57
579 587 m 1,71,-1
 579 587 l 1,71,-1
570 588 m 1,72,-1
 570 588 l 1,72,-1
605 5 m 0,73,74
 652 5 652 5 680 -30 c 0,75,76
 708 -64 708 -64 708 -110 c 128,-1,77
 708 -156 708 -156 687 -182 c 0,78,79
 660 -218 660 -218 607 -218 c 128,-1,80
 554 -218 554 -218 526 -187 c 128,-1,81
 498 -156 498 -156 498 -109 c 128,-1,82
 498 -62 498 -62 523 -30 c 0,83,84
 550 5 550 5 605 5 c 0,73,74
619 -85 m 0,85,86
 615 -80 615 -80 607 -81 c 0,87,88
 598 -81 598 -81 595 -85 c 0,89,90
 590 -91 590 -91 589 -102 c 0,91,92
 589 -113 589 -113 594 -118 c 0,93,94
 598 -123 598 -123 609 -123 c 0,95,96
 619 -123 619 -123 622 -119 c 128,-1,97
 625 -115 625 -115 625 -104 c 0,98,99
 625 -92 625 -92 619 -85 c 0,85,86
EndSplineSet
EndChar

StartChar: at
Encoding: 64 64 69
Width: 886
VWidth: 1051
Flags: W
LayerCount: 2
Fore
SplineSet
553 248 m 1,0,-1
 616 152 l 1,1,-1
 487 49 l 1,2,-1
 389 55 l 1,3,-1
 318 168 l 1,4,-1
 335 297 l 1,5,-1
 297 285 l 1,6,-1
 289 165 l 1,7,-1
 348 35 l 1,8,-1
 462 20 l 1,9,-1
 621 154 l 1,10,-1
 679 44 l 1,11,-1
 691 43 l 1,12,-1
 561 254 l 1,13,-1
 553 248 l 1,0,-1
118 234 m 0,14,15
 118 272 118 272 131 311 c 0,16,17
 202 529 202 529 364 568 c 0,18,19
 392 575 392 575 418 575 c 0,20,21
 421 575 421 575 424 575 c 0,22,23
 551 575 551 575 646 439 c 0,24,25
 735 312 735 312 735 155 c 0,26,27
 735 112 735 112 728 66 c 2,28,-1
 724 39 l 1,29,-1
 758 35 l 1,30,31
 763 84 763 84 763 129 c 0,32,33
 763 342 763 342 648 477 c 0,34,35
 538 607 538 607 420 607 c 0,36,37
 419 607 419 607 418 607 c 0,38,39
 384 607 384 607 350 597 c 0,40,41
 191 549 191 549 125 339 c 0,42,43
 112 297 112 297 111 253 c 0,44,45
 111 87 111 87 309 -98 c 1,46,-1
 353 -85 l 1,47,48
 118 68 118 68 118 234 c 0,14,15
EndSplineSet
EndChar
